<?xml version="1.0" encoding="utf-8"?>
<!-- Generator: Adobe Illustrator 16.0.0, SVG Export Plug-In . SVG Version: 6.00 Build 0)  -->
<!DOCTYPE svg PUBLIC "-//W3C//DTD SVG 1.1//EN" "http://www.w3.org/Graphics/SVG/1.1/DTD/svg11.dtd">
<svg version="1.1" id="Capa_1" xmlns="http://www.w3.org/2000/svg" xmlns:xlink="http://www.w3.org/1999/xlink" x="0px" y="0px"
	 width="1353.447px" height="183.387px" viewBox="0 0 1353.447 183.387" enable-background="new 0 0 1353.447 183.387"
	 xml:space="preserve">
<circle fill-rule="evenodd" clip-rule="evenodd" cx="105.142" cy="122.557" r="13.8"/>
<circle fill-rule="evenodd" clip-rule="evenodd" cx="146.03" cy="122.557" r="13.799"/>
<circle fill-rule="evenodd" clip-rule="evenodd" cx="184.873" cy="122.557" r="13.799"/>
<path fill-rule="evenodd" clip-rule="evenodd" d="M242.63,122.557c0,7.621-6.183,13.8-13.802,13.8c-7.62,0-13.801-6.179-13.801-13.8
	c0-7.619,6.181-13.799,13.801-13.799C236.447,108.758,242.63,114.938,242.63,122.557z"/>
<path fill-rule="evenodd" clip-rule="evenodd" d="M281.472,122.557c0,7.621-6.181,13.8-13.797,13.8
	c-7.622,0-13.802-6.179-13.802-13.8c0-7.619,6.18-13.799,13.802-13.799C275.291,108.758,281.472,114.938,281.472,122.557z"/>
<path fill-rule="evenodd" clip-rule="evenodd" fill="#FFFFFF" stroke="#000000" stroke-width="7" stroke-miterlimit="10" d="
	M93.889,122.045c0,0,6.867,9.691,20.545,2.709c1.068-0.546,2.113-1.285,3.213-2.07l1.765-51.981c0,0-17.931-9.522-28.956,1.222
	L93.889,122.045z"/>
<path fill-rule="evenodd" clip-rule="evenodd" fill="#FFFFFF" stroke="#000000" stroke-width="7" stroke-miterlimit="10" d="
	M134.066,122.045c0,0,6.867,9.691,20.545,2.709c1.07-0.546,2.113-1.285,3.214-2.07l1.764-51.981c0,0-17.929-9.522-28.954,1.222
	L134.066,122.045z"/>
<path fill-rule="evenodd" clip-rule="evenodd" fill="#FFFFFF" stroke="#000000" stroke-width="7" stroke-miterlimit="10" d="
	M173.381,122.045c0,0,6.869,9.691,20.545,2.709c1.07-0.546,2.113-1.285,3.213-2.07l1.766-51.981c0,0-17.933-9.522-28.956,1.222
	L173.381,122.045z"/>
<path fill-rule="evenodd" clip-rule="evenodd" fill="#FFFFFF" stroke="#000000" stroke-width="7" stroke-miterlimit="10" d="
	M217.447,122.045c0,0,6.869,9.691,20.545,2.709c1.07-0.546,2.114-1.285,3.213-2.07l1.766-51.981c0,0-17.933-9.522-28.955,1.222
	L217.447,122.045z"/>
<path fill-rule="evenodd" clip-rule="evenodd" fill="#FFFFFF" stroke="#000000" stroke-width="7" stroke-miterlimit="10" d="
	M256.762,122.045c0,0,6.869,9.691,20.545,2.709c1.07-0.546,2.112-1.285,3.214-2.07l1.765-51.981c0,0-17.932-9.522-28.957,1.222
	L256.762,122.045z"/>
<circle fill-rule="evenodd" clip-rule="evenodd" cx="312.077" cy="122.557" r="13.799"/>
<circle fill-rule="evenodd" clip-rule="evenodd" cx="350.92" cy="122.557" r="13.8"/>
<path fill-rule="evenodd" clip-rule="evenodd" d="M405.609,122.557c0,7.621-6.181,13.8-13.799,13.8c-7.623,0-13.8-6.179-13.8-13.8
	c0-7.619,6.177-13.799,13.8-13.799C399.429,108.758,405.609,114.938,405.609,122.557z"/>
<circle fill-rule="evenodd" clip-rule="evenodd" cx="430.652" cy="122.557" r="13.799"/>
<path fill-rule="evenodd" clip-rule="evenodd" d="M488.409,122.557c0,7.621-6.183,13.8-13.802,13.8
	c-7.62,0-13.801-6.179-13.801-13.8c0-7.619,6.181-13.799,13.801-13.799C482.227,108.758,488.409,114.938,488.409,122.557z"/>
<path fill-rule="evenodd" clip-rule="evenodd" d="M527.251,122.557c0,7.621-6.181,13.8-13.797,13.8
	c-7.622,0-13.802-6.179-13.802-13.8c0-7.619,6.18-13.799,13.802-13.799C521.07,108.758,527.251,114.938,527.251,122.557z"/>
<path fill-rule="evenodd" clip-rule="evenodd" fill="#FFFFFF" stroke="#000000" stroke-width="7" stroke-miterlimit="10" d="
	M300.353,122.045c0,0,6.868,9.691,20.546,2.709c1.069-0.546,2.112-1.285,3.214-2.07l1.764-51.981c0,0-17.93-9.522-28.955,1.222
	L300.353,122.045z"/>
<path fill-rule="evenodd" clip-rule="evenodd" fill="#FFFFFF" stroke="#000000" stroke-width="7" stroke-miterlimit="10" d="
	M339.668,122.045c0,0,6.867,9.691,20.545,2.709c1.068-0.546,2.113-1.285,3.213-2.07l1.765-51.981c0,0-17.932-9.522-28.956,1.222
	L339.668,122.045z"/>
<path fill-rule="evenodd" clip-rule="evenodd" fill="#FFFFFF" stroke="#000000" stroke-width="7" stroke-miterlimit="10" d="
	M379.846,122.045c0,0,6.868,9.691,20.545,2.709c1.07-0.546,2.113-1.285,3.214-2.07l1.764-51.981c0,0-17.929-9.522-28.955,1.222
	L379.846,122.045z"/>
<path fill-rule="evenodd" clip-rule="evenodd" fill="#FFFFFF" stroke="#000000" stroke-width="7" stroke-miterlimit="10" d="
	M419.16,122.045c0,0,6.869,9.691,20.544,2.709c1.071-0.546,2.114-1.285,3.214-2.07l1.766-51.981c0,0-17.933-9.522-28.957,1.222
	L419.16,122.045z"/>
<path fill-rule="evenodd" clip-rule="evenodd" fill="#FFFFFF" stroke="#000000" stroke-width="7" stroke-miterlimit="10" d="
	M463.227,122.045c0,0,6.869,9.691,20.545,2.709c1.07-0.546,2.114-1.285,3.213-2.07l1.766-51.981c0,0-17.933-9.522-28.955,1.222
	L463.227,122.045z"/>
<path fill-rule="evenodd" clip-rule="evenodd" fill="#FFFFFF" stroke="#000000" stroke-width="7" stroke-miterlimit="10" d="
	M502.541,122.045c0,0,6.869,9.691,20.545,2.709c1.07-0.546,2.112-1.285,3.214-2.07l1.765-51.981c0,0-17.932-9.522-28.956,1.222
	L502.541,122.045z"/>
<circle fill-rule="evenodd" clip-rule="evenodd" cx="553.689" cy="122.557" r="13.799"/>
<circle fill-rule="evenodd" clip-rule="evenodd" cx="592.533" cy="122.557" r="13.8"/>
<path fill-rule="evenodd" clip-rule="evenodd" d="M647.222,122.557c0,7.621-6.181,13.8-13.799,13.8c-7.622,0-13.8-6.179-13.8-13.8
	c0-7.619,6.178-13.799,13.8-13.799C641.041,108.758,647.222,114.938,647.222,122.557z"/>
<circle fill-rule="evenodd" clip-rule="evenodd" cx="672.265" cy="122.557" r="13.798"/>
<path fill-rule="evenodd" clip-rule="evenodd" d="M730.021,122.557c0,7.621-6.183,13.8-13.801,13.8
	c-7.621,0-13.801-6.179-13.801-13.8c0-7.619,6.18-13.799,13.801-13.799C723.839,108.758,730.021,114.938,730.021,122.557z"/>
<path fill-rule="evenodd" clip-rule="evenodd" d="M768.864,122.557c0,7.621-6.181,13.8-13.798,13.8
	c-7.623,0-13.801-6.179-13.801-13.8c0-7.619,6.178-13.799,13.801-13.799C762.684,108.758,768.864,114.938,768.864,122.557z"/>
<path fill-rule="evenodd" clip-rule="evenodd" fill="#FFFFFF" stroke="#000000" stroke-width="7" stroke-miterlimit="10" d="
	M541.965,122.045c0,0,6.868,9.691,20.547,2.709c1.069-0.546,2.111-1.285,3.213-2.07l1.764-51.981c0,0-17.93-9.522-28.955,1.222
	L541.965,122.045z"/>
<path fill-rule="evenodd" clip-rule="evenodd" fill="#FFFFFF" stroke="#000000" stroke-width="7" stroke-miterlimit="10" d="
	M581.279,122.045c0,0,6.869,9.691,20.547,2.709c1.068-0.546,2.112-1.285,3.212-2.07l1.765-51.981c0,0-17.931-9.522-28.955,1.222
	L581.279,122.045z"/>
<path fill-rule="evenodd" clip-rule="evenodd" fill="#FFFFFF" stroke="#000000" stroke-width="7" stroke-miterlimit="10" d="
	M621.458,122.045c0,0,6.868,9.691,20.546,2.709c1.069-0.546,2.112-1.285,3.214-2.07l1.763-51.981c0,0-17.929-9.522-28.954,1.222
	L621.458,122.045z"/>
<path fill-rule="evenodd" clip-rule="evenodd" fill="#FFFFFF" stroke="#000000" stroke-width="7" stroke-miterlimit="10" d="
	M660.771,122.045c0,0,6.869,9.691,20.545,2.709c1.072-0.546,2.114-1.285,3.214-2.07l1.765-51.981c0,0-17.932-9.522-28.955,1.222
	L660.771,122.045z"/>
<path fill-rule="evenodd" clip-rule="evenodd" fill="#FFFFFF" stroke="#000000" stroke-width="7" stroke-miterlimit="10" d="
	M704.838,122.045c0,0,6.869,9.691,20.547,2.709c1.068-0.546,2.113-1.285,3.213-2.07l1.766-51.981c0,0-17.934-9.522-28.955,1.222
	L704.838,122.045z"/>
<path fill-rule="evenodd" clip-rule="evenodd" fill="#FFFFFF" stroke="#000000" stroke-width="7" stroke-miterlimit="10" d="
	M744.154,122.045c0,0,6.869,9.691,20.545,2.709c1.068-0.546,2.111-1.285,3.213-2.07l1.766-51.981c0,0-17.934-9.522-28.957,1.222
	L744.154,122.045z"/>
<path fill-rule="evenodd" clip-rule="evenodd" d="M813.268,122.557c0,7.621-6.176,13.8-13.801,13.8
	c-7.617,0-13.796-6.179-13.796-13.8c0-7.619,6.179-13.799,13.796-13.799C807.092,108.758,813.268,114.938,813.268,122.557z"/>
<path fill-rule="evenodd" clip-rule="evenodd" d="M852.113,122.557c0,7.621-6.182,13.8-13.8,13.8c-7.622,0-13.801-6.179-13.801-13.8
	c0-7.619,6.179-13.799,13.801-13.799C845.932,108.758,852.113,114.938,852.113,122.557z"/>
<circle fill-rule="evenodd" clip-rule="evenodd" cx="879.202" cy="122.557" r="13.799"/>
<circle fill-rule="evenodd" clip-rule="evenodd" cx="918.043" cy="122.557" r="13.798"/>
<path fill-rule="evenodd" clip-rule="evenodd" d="M975.801,122.557c0,7.621-6.183,13.8-13.8,13.8c-7.621,0-13.804-6.179-13.804-13.8
	c0-7.619,6.183-13.799,13.804-13.799C969.618,108.758,975.801,114.938,975.801,122.557z"/>
<path fill-rule="evenodd" clip-rule="evenodd" d="M1014.641,122.557c0,7.621-6.178,13.8-13.795,13.8
	c-7.621,0-13.801-6.179-13.801-13.8c0-7.619,6.18-13.799,13.801-13.799C1008.463,108.758,1014.641,114.938,1014.641,122.557z"/>
<path fill-rule="evenodd" clip-rule="evenodd" fill="#FFFFFF" stroke="#000000" stroke-width="7" stroke-miterlimit="10" d="
	M787.745,122.045c0,0,6.869,9.691,20.546,2.709c1.068-0.546,2.111-1.285,3.214-2.07l1.763-51.981c0,0-17.931-9.522-28.955,1.222
	L787.745,122.045z"/>
<path fill-rule="evenodd" clip-rule="evenodd" fill="#FFFFFF" stroke="#000000" stroke-width="7" stroke-miterlimit="10" d="
	M827.059,122.045c0,0,6.869,9.691,20.547,2.709c1.068-0.546,2.111-1.285,3.211-2.07l1.766-51.981c0,0-17.93-9.522-28.956,1.222
	L827.059,122.045z"/>
<path fill-rule="evenodd" clip-rule="evenodd" fill="#FFFFFF" stroke="#000000" stroke-width="7" stroke-miterlimit="10" d="
	M867.237,122.045c0,0,6.868,9.691,20.547,2.709c1.067-0.546,2.111-1.285,3.212-2.07l1.764-51.981c0,0-17.93-9.522-28.956,1.222
	L867.237,122.045z"/>
<path fill-rule="evenodd" clip-rule="evenodd" fill="#FFFFFF" stroke="#000000" stroke-width="7" stroke-miterlimit="10" d="
	M906.553,122.045c0,0,6.869,9.691,20.543,2.709c1.072-0.546,2.113-1.285,3.213-2.07l1.768-51.981c0,0-17.936-9.522-28.957,1.222
	L906.553,122.045z"/>
<path fill-rule="evenodd" clip-rule="evenodd" fill="#FFFFFF" stroke="#000000" stroke-width="7" stroke-miterlimit="10" d="
	M950.619,122.045c0,0,6.869,9.691,20.543,2.709c1.072-0.546,2.113-1.285,3.214-2.07l1.765-51.981c0,0-17.933-9.522-28.955,1.222
	L950.619,122.045z"/>
<path fill-rule="evenodd" clip-rule="evenodd" fill="#FFFFFF" stroke="#000000" stroke-width="7" stroke-miterlimit="10" d="
	M989.934,122.045c0,0,6.868,9.691,20.544,2.709c1.07-0.546,2.114-1.285,3.212-2.07l1.767-51.981c0,0-17.933-9.522-28.956,1.222
	L989.934,122.045z"/>
<path fill-rule="evenodd" clip-rule="evenodd" d="M1054.882,122.557c0,7.621-6.177,13.8-13.801,13.8
	c-7.617,0-13.797-6.179-13.797-13.8c0-7.619,6.18-13.799,13.797-13.799C1048.705,108.758,1054.882,114.938,1054.882,122.557z"/>
<circle fill-rule="evenodd" clip-rule="evenodd" cx="1079.925" cy="122.557" r="13.799"/>
<path fill-rule="evenodd" clip-rule="evenodd" d="M1134.614,122.557c0,7.621-6.181,13.8-13.798,13.8c-7.625,0-13.8-6.179-13.8-13.8
	c0-7.619,6.175-13.799,13.8-13.799C1128.434,108.758,1134.614,114.938,1134.614,122.557z"/>
<circle fill-rule="evenodd" clip-rule="evenodd" cx="1159.657" cy="122.557" r="13.799"/>
<path fill-rule="evenodd" clip-rule="evenodd" d="M1217.414,122.557c0,7.621-6.183,13.8-13.801,13.8
	c-7.62,0-13.803-6.179-13.803-13.8c0-7.619,6.183-13.799,13.803-13.799C1211.231,108.758,1217.414,114.938,1217.414,122.557z"/>
<path fill-rule="evenodd" clip-rule="evenodd" d="M1256.256,122.557c0,7.621-6.18,13.8-13.797,13.8
	c-7.621,0-13.801-6.179-13.801-13.8c0-7.619,6.18-13.799,13.801-13.799C1250.076,108.758,1256.256,114.938,1256.256,122.557z"/>
<path fill-rule="evenodd" clip-rule="evenodd" fill="#FFFFFF" stroke="#000000" stroke-width="7" stroke-miterlimit="10" d="
	M1029.358,122.045c0,0,6.869,9.691,20.546,2.709c1.068-0.546,2.111-1.285,3.214-2.07l1.764-51.981c0,0-17.932-9.522-28.956,1.222
	L1029.358,122.045z"/>
<path fill-rule="evenodd" clip-rule="evenodd" fill="#FFFFFF" stroke="#000000" stroke-width="7" stroke-miterlimit="10" d="
	M1068.673,122.045c0,0,6.868,9.691,20.546,2.709c1.068-0.546,2.11-1.285,3.211-2.07l1.766-51.981c0,0-17.93-9.522-28.955,1.222
	L1068.673,122.045z"/>
<path fill-rule="evenodd" clip-rule="evenodd" fill="#FFFFFF" stroke="#000000" stroke-width="7" stroke-miterlimit="10" d="
	M1108.85,122.045c0,0,6.869,9.691,20.547,2.709c1.068-0.546,2.112-1.285,3.214-2.07l1.763-51.981c0,0-17.93-9.522-28.955,1.222
	L1108.85,122.045z"/>
<path fill-rule="evenodd" clip-rule="evenodd" fill="#FFFFFF" stroke="#000000" stroke-width="7" stroke-miterlimit="10" d="
	M1148.166,122.045c0,0,6.869,9.691,20.543,2.709c1.07-0.546,2.114-1.285,3.214-2.07l1.767-51.981c0,0-17.935-9.522-28.956,1.222
	L1148.166,122.045z"/>
<path fill-rule="evenodd" clip-rule="evenodd" fill="#FFFFFF" stroke="#000000" stroke-width="7" stroke-miterlimit="10" d="
	M1192.232,122.045c0,0,6.869,9.691,20.543,2.709c1.072-0.546,2.113-1.285,3.214-2.07l1.767-51.981c0,0-17.935-9.522-28.956,1.222
	L1192.232,122.045z"/>
<path fill-rule="evenodd" clip-rule="evenodd" fill="#FFFFFF" stroke="#000000" stroke-width="7" stroke-miterlimit="10" d="
	M1231.547,122.045c0,0,6.869,9.691,20.543,2.709c1.071-0.546,2.115-1.285,3.214-2.07l1.767-51.981c0,0-17.934-9.522-28.957,1.222
	L1231.547,122.045z"/>
</svg>
