<?xml version="1.0" encoding="utf-8"?>
<!-- Generator: Adobe Illustrator 16.0.0, SVG Export Plug-In . SVG Version: 6.00 Build 0)  -->
<!DOCTYPE svg PUBLIC "-//W3C//DTD SVG 1.1//EN" "http://www.w3.org/Graphics/SVG/1.1/DTD/svg11.dtd">
<svg version="1.1" id="Capa_1" xmlns="http://www.w3.org/2000/svg" xmlns:xlink="http://www.w3.org/1999/xlink" x="0px" y="0px"
	 width="275px" height="64px" viewBox="0 0 275 64" enable-background="new 0 0 275 64" xml:space="preserve">
<circle fill-rule="evenodd" clip-rule="evenodd" cx="23.667" cy="41.447" r="5.553"/>
<circle fill-rule="evenodd" clip-rule="evenodd" cx="40.121" cy="41.447" r="5.552"/>
<circle fill-rule="evenodd" clip-rule="evenodd" cx="55.75" cy="41.447" r="5.552"/>
<circle fill-rule="evenodd" clip-rule="evenodd" cx="73.437" cy="41.447" r="5.553"/>
<circle fill-rule="evenodd" clip-rule="evenodd" cx="89.067" cy="41.447" r="5.552"/>
<path fill-rule="evenodd" clip-rule="evenodd" fill="#FFFFFF" stroke="#000000" stroke-width="2" stroke-miterlimit="10" d="
	M19.14,41.241c0,0,2.764,3.899,8.268,1.091c0.43-0.221,0.85-0.518,1.292-0.834l0.71-20.916c0,0-7.215-3.832-11.651,0.492
	L19.14,41.241z"/>
<path fill-rule="evenodd" clip-rule="evenodd" fill="#FFFFFF" stroke="#000000" stroke-width="2" stroke-miterlimit="10" d="
	M35.307,41.241c0,0,2.764,3.899,8.267,1.091c0.431-0.221,0.851-0.518,1.293-0.834l0.71-20.916c0,0-7.215-3.832-11.651,0.492
	L35.307,41.241z"/>
<path fill-rule="evenodd" clip-rule="evenodd" fill="#FFFFFF" stroke="#000000" stroke-width="2" stroke-miterlimit="10" d="
	M51.126,41.241c0,0,2.764,3.899,8.267,1.091c0.43-0.221,0.85-0.518,1.292-0.834l0.711-20.916c0,0-7.216-3.832-11.651,0.492
	L51.126,41.241z"/>
<path fill-rule="evenodd" clip-rule="evenodd" fill="#FFFFFF" stroke="#000000" stroke-width="2" stroke-miterlimit="10" d="
	M68.857,41.241c0,0,2.764,3.899,8.267,1.091c0.43-0.221,0.851-0.518,1.293-0.834l0.71-20.916c0,0-7.215-3.832-11.65,0.492
	L68.857,41.241z"/>
<path fill-rule="evenodd" clip-rule="evenodd" fill="#FFFFFF" stroke="#000000" stroke-width="2" stroke-miterlimit="10" d="
	M84.677,41.241c0,0,2.764,3.899,8.266,1.091c0.431-0.221,0.851-0.518,1.293-0.834l0.71-20.916c0,0-7.215-3.832-11.652,0.492
	L84.677,41.241z"/>
<circle fill-rule="evenodd" clip-rule="evenodd" cx="106.934" cy="41.447" r="5.553"/>
<circle fill-rule="evenodd" clip-rule="evenodd" cx="122.564" cy="41.447" r="5.553"/>
<circle fill-rule="evenodd" clip-rule="evenodd" cx="139.017" cy="41.447" r="5.553"/>
<circle fill-rule="evenodd" clip-rule="evenodd" cx="154.646" cy="41.447" r="5.553"/>
<path fill-rule="evenodd" clip-rule="evenodd" d="M177.887,41.447c0,3.066-2.488,5.553-5.555,5.553
	c-3.064,0-5.553-2.486-5.553-5.553s2.488-5.553,5.553-5.553C175.398,35.895,177.887,38.381,177.887,41.447z"/>
<path fill-rule="evenodd" clip-rule="evenodd" d="M193.516,41.447c0,3.066-2.488,5.553-5.552,5.553
	c-3.067,0-5.554-2.486-5.554-5.553s2.486-5.553,5.554-5.553C191.027,35.895,193.516,38.381,193.516,41.447z"/>
<path fill-rule="evenodd" clip-rule="evenodd" fill="#FFFFFF" stroke="#000000" stroke-width="2" stroke-miterlimit="10" d="
	M102.216,41.241c0,0,2.764,3.899,8.268,1.091c0.43-0.221,0.85-0.518,1.292-0.834l0.71-20.916c0,0-7.214-3.832-11.651,0.492
	L102.216,41.241z"/>
<path fill-rule="evenodd" clip-rule="evenodd" fill="#FFFFFF" stroke="#000000" stroke-width="2" stroke-miterlimit="10" d="
	M118.036,41.241c0,0,2.763,3.899,8.267,1.091c0.43-0.221,0.851-0.518,1.293-0.834l0.71-20.916c0,0-7.216-3.832-11.651,0.492
	L118.036,41.241z"/>
<path fill-rule="evenodd" clip-rule="evenodd" fill="#FFFFFF" stroke="#000000" stroke-width="2" stroke-miterlimit="10" d="
	M134.203,41.241c0,0,2.764,3.899,8.268,1.091c0.43-0.221,0.85-0.518,1.293-0.834l0.709-20.916c0,0-7.214-3.832-11.651,0.492
	L134.203,41.241z"/>
<path fill-rule="evenodd" clip-rule="evenodd" fill="#FFFFFF" stroke="#000000" stroke-width="2" stroke-miterlimit="10" d="
	M150.021,41.241c0,0,2.764,3.899,8.268,1.091c0.432-0.221,0.85-0.518,1.293-0.834l0.711-20.916c0,0-7.217-3.832-11.652,0.492
	L150.021,41.241z"/>
<path fill-rule="evenodd" clip-rule="evenodd" fill="#FFFFFF" stroke="#000000" stroke-width="2" stroke-miterlimit="10" d="
	M167.754,41.241c0,0,2.764,3.899,8.266,1.091c0.432-0.221,0.852-0.518,1.293-0.834l0.711-20.916c0,0-7.217-3.832-11.65,0.492
	L167.754,41.241z"/>
<path fill-rule="evenodd" clip-rule="evenodd" fill="#FFFFFF" stroke="#000000" stroke-width="2" stroke-miterlimit="10" d="
	M183.572,41.241c0,0,2.764,3.899,8.267,1.091c0.431-0.221,0.851-0.518,1.293-0.834l0.71-20.916c0,0-7.215-3.832-11.65,0.492
	L183.572,41.241z"/>
<circle fill-rule="evenodd" clip-rule="evenodd" cx="204.153" cy="41.447" r="5.552"/>
<circle fill-rule="evenodd" clip-rule="evenodd" cx="219.783" cy="41.447" r="5.553"/>
<circle fill-rule="evenodd" clip-rule="evenodd" cx="236.236" cy="41.447" r="5.553"/>
<circle fill-rule="evenodd" clip-rule="evenodd" cx="251.865" cy="41.447" r="5.553"/>
<path fill-rule="evenodd" clip-rule="evenodd" fill="#FFFFFF" stroke="#000000" stroke-width="2" stroke-miterlimit="10" d="
	M199.436,41.241c0,0,2.764,3.899,8.268,1.091c0.429-0.221,0.85-0.518,1.293-0.834l0.709-20.916c0,0-7.213-3.832-11.65,0.492
	L199.436,41.241z"/>
<path fill-rule="evenodd" clip-rule="evenodd" fill="#FFFFFF" stroke="#000000" stroke-width="2" stroke-miterlimit="10" d="
	M215.254,41.241c0,0,2.766,3.899,8.27,1.091c0.43-0.221,0.85-0.518,1.293-0.834l0.709-20.916c0,0-7.215-3.832-11.65,0.492
	L215.254,41.241z"/>
<path fill-rule="evenodd" clip-rule="evenodd" fill="#FFFFFF" stroke="#000000" stroke-width="2" stroke-miterlimit="10" d="
	M231.422,41.241c0,0,2.764,3.899,8.268,1.091c0.43-0.221,0.85-0.518,1.293-0.834l0.709-20.916c0,0-7.215-3.832-11.65,0.492
	L231.422,41.241z"/>
<path fill-rule="evenodd" clip-rule="evenodd" fill="#FFFFFF" stroke="#000000" stroke-width="2" stroke-miterlimit="10" d="
	M247.242,41.241c0,0,2.762,3.899,8.265,1.091c0.433-0.221,0.851-0.518,1.294-0.834l0.711-20.916c0,0-7.217-3.832-11.65,0.492
	L247.242,41.241z"/>
</svg>
