<?xml version="1.0" encoding="utf-8"?>
<!-- Generator: Adobe Illustrator 16.0.0, SVG Export Plug-In . SVG Version: 6.00 Build 0)  -->
<!DOCTYPE svg PUBLIC "-//W3C//DTD SVG 1.1//EN" "http://www.w3.org/Graphics/SVG/1.1/DTD/svg11.dtd">
<svg version="1.1" id="Capa_1" xmlns="http://www.w3.org/2000/svg" xmlns:xlink="http://www.w3.org/1999/xlink" x="0px" y="0px"
	  viewBox="0 0 1362 1180" enable-background="new 0 0 1362 1180" xml:space="preserve">
<polygon fill="none" stroke="#000000" stroke-width="23" stroke-miterlimit="10" points="1329.325,1154.5 679.545,1154.5 
	30.316,1154.5 30.316,30.938 1329.325,30.938 "/>
<polyline fill-rule="evenodd" clip-rule="evenodd" fill="#FFFFFF" stroke="#000000" stroke-width="7" stroke-miterlimit="10" points="
	680.855,1130.078 53.495,1130.078 53.495,317.438 17.706,275.914 53.495,229.505 53.495,54.011 657.871,54.61 "/>
<polyline fill-rule="evenodd" clip-rule="evenodd" fill="#FFFFFF" stroke="#000000" stroke-width="7" stroke-miterlimit="10" points="
	669.563,1130.185 1297.341,1130.185 1297.341,317.545 1333.155,276.021 1297.341,229.61 1297.341,54.117 648.758,54.716 "/>
<polyline fill-rule="evenodd" clip-rule="evenodd" fill="none" stroke="#000000" stroke-width="4" stroke-miterlimit="10" points="
	670.677,1104.815 1271.313,1104.815 1271.313,320.274 1305.578,280.794 1271.313,236.672 1271.313,69.821 650.89,70.393 "/>
<polyline fill-rule="evenodd" clip-rule="evenodd" fill="none" stroke="#000000" stroke-width="4" stroke-miterlimit="10" points="
	680.775,1104.815 82.467,1104.815 82.467,320.274 48.334,280.794 82.467,236.672 82.467,69.821 658.855,70.393 "/>
<circle fill-rule="evenodd" clip-rule="evenodd" cx="109.674" cy="84.2" r="13.8"/>
<path fill-rule="evenodd" clip-rule="evenodd" d="M164.363,84.2c0,7.621-6.18,13.8-13.798,13.8c-7.622,0-13.8-6.179-13.8-13.8
	c0-7.619,6.178-13.799,13.8-13.799C158.183,70.401,164.363,76.581,164.363,84.2z"/>
<circle fill-rule="evenodd" clip-rule="evenodd" cx="189.406" cy="84.2" r="13.799"/>
<path fill-rule="evenodd" clip-rule="evenodd" d="M247.163,84.2c0,7.621-6.183,13.8-13.802,13.8c-7.62,0-13.801-6.179-13.801-13.8
	c0-7.619,6.181-13.799,13.801-13.799C240.98,70.401,247.163,76.581,247.163,84.2z"/>
<path fill-rule="evenodd" clip-rule="evenodd" d="M286.005,84.2c0,7.621-6.181,13.8-13.797,13.8c-7.622,0-13.802-6.179-13.802-13.8
	c0-7.619,6.18-13.799,13.802-13.799C279.824,70.401,286.005,76.581,286.005,84.2z"/>
<path fill-rule="evenodd" clip-rule="evenodd" fill="#FFFFFF" stroke="#000000" stroke-width="7" stroke-miterlimit="10" d="
	M98.421,83.688c0,0,6.868,9.691,20.546,2.709c1.068-0.546,2.113-1.285,3.212-2.07l1.765-51.981c0,0-17.931-9.522-28.956,1.222
	L98.421,83.688z"/>
<path fill-rule="evenodd" clip-rule="evenodd" fill="#FFFFFF" stroke="#000000" stroke-width="7" stroke-miterlimit="10" d="
	M138.599,83.688c0,0,6.869,9.691,20.546,2.709c1.07-0.546,2.113-1.285,3.213-2.07l1.764-51.981c0,0-17.929-9.522-28.955,1.222
	L138.599,83.688z"/>
<path fill-rule="evenodd" clip-rule="evenodd" fill="#FFFFFF" stroke="#000000" stroke-width="7" stroke-miterlimit="10" d="
	M177.914,83.688c0,0,6.869,9.691,20.545,2.709c1.07-0.546,2.113-1.285,3.213-2.07l1.766-51.981c0,0-17.933-9.522-28.956,1.222
	L177.914,83.688z"/>
<path fill-rule="evenodd" clip-rule="evenodd" fill="#FFFFFF" stroke="#000000" stroke-width="7" stroke-miterlimit="10" d="
	M221.98,83.688c0,0,6.869,9.691,20.545,2.709c1.07-0.546,2.114-1.285,3.213-2.07l1.766-51.981c0,0-17.933-9.522-28.955,1.222
	L221.98,83.688z"/>
<path fill-rule="evenodd" clip-rule="evenodd" fill="#FFFFFF" stroke="#000000" stroke-width="7" stroke-miterlimit="10" d="
	M261.295,83.688c0,0,6.869,9.691,20.545,2.709c1.07-0.546,2.112-1.285,3.214-2.07l1.765-51.981c0,0-17.932-9.522-28.957,1.222
	L261.295,83.688z"/>
<circle fill-rule="evenodd" clip-rule="evenodd" cx="316.61" cy="84.2" r="13.799"/>
<circle fill-rule="evenodd" clip-rule="evenodd" cx="355.454" cy="84.2" r="13.8"/>
<path fill-rule="evenodd" clip-rule="evenodd" d="M410.143,84.2c0,7.621-6.181,13.8-13.799,13.8c-7.623,0-13.8-6.179-13.8-13.8
	c0-7.619,6.177-13.799,13.8-13.799C403.962,70.401,410.143,76.581,410.143,84.2z"/>
<circle fill-rule="evenodd" clip-rule="evenodd" cx="435.186" cy="84.2" r="13.799"/>
<path fill-rule="evenodd" clip-rule="evenodd" d="M492.942,84.2c0,7.621-6.183,13.8-13.802,13.8c-7.62,0-13.801-6.179-13.801-13.8
	c0-7.619,6.181-13.799,13.801-13.799C486.76,70.401,492.942,76.581,492.942,84.2z"/>
<path fill-rule="evenodd" clip-rule="evenodd" d="M531.784,84.2c0,7.621-6.181,13.8-13.797,13.8c-7.622,0-13.802-6.179-13.802-13.8
	c0-7.619,6.18-13.799,13.802-13.799C525.604,70.401,531.784,76.581,531.784,84.2z"/>
<path fill-rule="evenodd" clip-rule="evenodd" fill="#FFFFFF" stroke="#000000" stroke-width="7" stroke-miterlimit="10" d="
	M304.886,83.688c0,0,6.868,9.691,20.546,2.709c1.069-0.546,2.112-1.285,3.214-2.07l1.764-51.981c0,0-17.93-9.522-28.955,1.222
	L304.886,83.688z"/>
<path fill-rule="evenodd" clip-rule="evenodd" fill="#FFFFFF" stroke="#000000" stroke-width="7" stroke-miterlimit="10" d="
	M344.201,83.688c0,0,6.867,9.691,20.545,2.709c1.068-0.546,2.113-1.285,3.213-2.07l1.765-51.981c0,0-17.932-9.522-28.956,1.222
	L344.201,83.688z"/>
<path fill-rule="evenodd" clip-rule="evenodd" fill="#FFFFFF" stroke="#000000" stroke-width="7" stroke-miterlimit="10" d="
	M384.379,83.688c0,0,6.868,9.691,20.545,2.709c1.07-0.546,2.113-1.285,3.214-2.07l1.764-51.981c0,0-17.929-9.522-28.954,1.222
	L384.379,83.688z"/>
<path fill-rule="evenodd" clip-rule="evenodd" fill="#FFFFFF" stroke="#000000" stroke-width="7" stroke-miterlimit="10" d="
	M423.693,83.688c0,0,6.869,9.691,20.545,2.709c1.07-0.546,2.113-1.285,3.213-2.07l1.766-51.981c0,0-17.933-9.522-28.957,1.222
	L423.693,83.688z"/>
<path fill-rule="evenodd" clip-rule="evenodd" fill="#FFFFFF" stroke="#000000" stroke-width="7" stroke-miterlimit="10" d="
	M467.76,83.688c0,0,6.869,9.691,20.545,2.709c1.07-0.546,2.114-1.285,3.213-2.07l1.766-51.981c0,0-17.933-9.522-28.955,1.222
	L467.76,83.688z"/>
<path fill-rule="evenodd" clip-rule="evenodd" fill="#FFFFFF" stroke="#000000" stroke-width="7" stroke-miterlimit="10" d="
	M507.074,83.688c0,0,6.869,9.691,20.545,2.709c1.07-0.546,2.112-1.285,3.214-2.07l1.765-51.981c0,0-17.932-9.522-28.956,1.222
	L507.074,83.688z"/>
<circle fill-rule="evenodd" clip-rule="evenodd" cx="558.223" cy="84.2" r="13.799"/>
<circle fill-rule="evenodd" clip-rule="evenodd" cx="597.066" cy="84.2" r="13.8"/>
<path fill-rule="evenodd" clip-rule="evenodd" d="M651.755,84.2c0,7.621-6.181,13.8-13.799,13.8c-7.622,0-13.8-6.179-13.8-13.8
	c0-7.619,6.178-13.799,13.8-13.799C645.574,70.401,651.755,76.581,651.755,84.2z"/>
<circle fill-rule="evenodd" clip-rule="evenodd" cx="676.798" cy="84.2" r="13.798"/>
<path fill-rule="evenodd" clip-rule="evenodd" d="M734.555,84.2c0,7.621-6.183,13.8-13.801,13.8c-7.621,0-13.801-6.179-13.801-13.8
	c0-7.619,6.18-13.799,13.801-13.799C728.372,70.401,734.555,76.581,734.555,84.2z"/>
<path fill-rule="evenodd" clip-rule="evenodd" d="M773.397,84.2c0,7.621-6.181,13.8-13.798,13.8c-7.623,0-13.801-6.179-13.801-13.8
	c0-7.619,6.178-13.799,13.801-13.799C767.217,70.401,773.397,76.581,773.397,84.2z"/>
<path fill-rule="evenodd" clip-rule="evenodd" fill="#FFFFFF" stroke="#000000" stroke-width="7" stroke-miterlimit="10" d="
	M546.498,83.688c0,0,6.868,9.691,20.547,2.709c1.069-0.546,2.111-1.285,3.213-2.07l1.764-51.981c0,0-17.93-9.522-28.955,1.222
	L546.498,83.688z"/>
<path fill-rule="evenodd" clip-rule="evenodd" fill="#FFFFFF" stroke="#000000" stroke-width="7" stroke-miterlimit="10" d="
	M585.813,83.688c0,0,6.869,9.691,20.547,2.709c1.068-0.546,2.112-1.285,3.212-2.07l1.765-51.981c0,0-17.931-9.522-28.955,1.222
	L585.813,83.688z"/>
<path fill-rule="evenodd" clip-rule="evenodd" fill="#FFFFFF" stroke="#000000" stroke-width="7" stroke-miterlimit="10" d="
	M625.991,83.688c0,0,6.868,9.691,20.546,2.709c1.069-0.546,2.112-1.285,3.214-2.07l1.763-51.981c0,0-17.929-9.522-28.954,1.222
	L625.991,83.688z"/>
<path fill-rule="evenodd" clip-rule="evenodd" fill="#FFFFFF" stroke="#000000" stroke-width="7" stroke-miterlimit="10" d="
	M665.305,83.688c0,0,6.869,9.691,20.545,2.709c1.072-0.546,2.114-1.285,3.214-2.07l1.765-51.981c0,0-17.932-9.522-28.955,1.222
	L665.305,83.688z"/>
<path fill-rule="evenodd" clip-rule="evenodd" fill="#FFFFFF" stroke="#000000" stroke-width="7" stroke-miterlimit="10" d="
	M709.371,83.688c0,0,6.869,9.691,20.547,2.709c1.068-0.546,2.113-1.285,3.213-2.07l1.766-51.981c0,0-17.934-9.522-28.955,1.222
	L709.371,83.688z"/>
<path fill-rule="evenodd" clip-rule="evenodd" fill="#FFFFFF" stroke="#000000" stroke-width="7" stroke-miterlimit="10" d="
	M748.688,83.688c0,0,6.869,9.691,20.545,2.709c1.069-0.546,2.111-1.285,3.213-2.07l1.766-51.981c0,0-17.934-9.522-28.957,1.222
	L748.688,83.688z"/>
<path fill-rule="evenodd" clip-rule="evenodd" d="M817.802,84.2c0,7.621-6.177,13.8-13.802,13.8c-7.616,0-13.796-6.179-13.796-13.8
	c0-7.619,6.18-13.799,13.796-13.799C811.625,70.401,817.802,76.581,817.802,84.2z"/>
<circle fill-rule="evenodd" clip-rule="evenodd" cx="842.846" cy="84.2" r="13.8"/>
<circle fill-rule="evenodd" clip-rule="evenodd" cx="883.735" cy="84.2" r="13.799"/>
<circle fill-rule="evenodd" clip-rule="evenodd" cx="922.577" cy="84.2" r="13.798"/>
<path fill-rule="evenodd" clip-rule="evenodd" d="M980.334,84.2c0,7.621-6.183,13.8-13.8,13.8c-7.621,0-13.804-6.179-13.804-13.8
	c0-7.619,6.183-13.799,13.804-13.799C974.151,70.401,980.334,76.581,980.334,84.2z"/>
<path fill-rule="evenodd" clip-rule="evenodd" d="M1019.175,84.2c0,7.621-6.179,13.8-13.796,13.8c-7.621,0-13.801-6.179-13.801-13.8
	c0-7.619,6.18-13.799,13.801-13.799C1012.996,70.401,1019.175,76.581,1019.175,84.2z"/>
<path fill-rule="evenodd" clip-rule="evenodd" fill="#FFFFFF" stroke="#000000" stroke-width="7" stroke-miterlimit="10" d="
	M792.278,83.688c0,0,6.869,9.691,20.546,2.709c1.068-0.546,2.111-1.285,3.214-2.07l1.764-51.981c0,0-17.932-9.522-28.956,1.222
	L792.278,83.688z"/>
<path fill-rule="evenodd" clip-rule="evenodd" fill="#FFFFFF" stroke="#000000" stroke-width="7" stroke-miterlimit="10" d="
	M831.593,83.688c0,0,6.868,9.691,20.546,2.709c1.068-0.546,2.111-1.285,3.211-2.07l1.766-51.981c0,0-17.93-9.522-28.956,1.222
	L831.593,83.688z"/>
<path fill-rule="evenodd" clip-rule="evenodd" fill="#FFFFFF" stroke="#000000" stroke-width="7" stroke-miterlimit="10" d="
	M871.771,83.688c0,0,6.868,9.691,20.547,2.709c1.067-0.546,2.111-1.285,3.212-2.07l1.764-51.981c0,0-17.93-9.522-28.956,1.222
	L871.771,83.688z"/>
<path fill-rule="evenodd" clip-rule="evenodd" fill="#FFFFFF" stroke="#000000" stroke-width="7" stroke-miterlimit="10" d="
	M911.086,83.688c0,0,6.869,9.691,20.543,2.709c1.072-0.546,2.113-1.285,3.214-2.07l1.767-51.981c0,0-17.935-9.522-28.957,1.222
	L911.086,83.688z"/>
<path fill-rule="evenodd" clip-rule="evenodd" fill="#FFFFFF" stroke="#000000" stroke-width="7" stroke-miterlimit="10" d="
	M955.152,83.688c0,0,6.869,9.691,20.543,2.709c1.072-0.546,2.113-1.285,3.214-2.07l1.766-51.981c0,0-17.934-9.522-28.956,1.222
	L955.152,83.688z"/>
<path fill-rule="evenodd" clip-rule="evenodd" fill="#FFFFFF" stroke="#000000" stroke-width="7" stroke-miterlimit="10" d="
	M994.467,83.688c0,0,6.868,9.691,20.544,2.709c1.07-0.546,2.114-1.285,3.212-2.07l1.767-51.981c0,0-17.933-9.522-28.956,1.222
	L994.467,83.688z"/>
<path fill-rule="evenodd" clip-rule="evenodd" d="M1059.415,84.2c0,7.621-6.177,13.8-13.801,13.8c-7.617,0-13.797-6.179-13.797-13.8
	c0-7.619,6.18-13.799,13.797-13.799C1053.238,70.401,1059.415,76.581,1059.415,84.2z"/>
<circle fill-rule="evenodd" clip-rule="evenodd" cx="1084.459" cy="84.2" r="13.8"/>
<path fill-rule="evenodd" clip-rule="evenodd" d="M1139.147,84.2c0,7.621-6.18,13.8-13.798,13.8c-7.625,0-13.8-6.179-13.8-13.8
	c0-7.619,6.175-13.799,13.8-13.799C1132.968,70.401,1139.147,76.581,1139.147,84.2z"/>
<circle fill-rule="evenodd" clip-rule="evenodd" cx="1164.19" cy="84.2" r="13.799"/>
<path fill-rule="evenodd" clip-rule="evenodd" d="M1221.947,84.2c0,7.621-6.183,13.8-13.801,13.8c-7.62,0-13.803-6.179-13.803-13.8
	c0-7.619,6.183-13.799,13.803-13.799C1215.765,70.401,1221.947,76.581,1221.947,84.2z"/>
<path fill-rule="evenodd" clip-rule="evenodd" d="M1260.789,84.2c0,7.621-6.18,13.8-13.797,13.8c-7.621,0-13.801-6.179-13.801-13.8
	c0-7.619,6.18-13.799,13.801-13.799C1254.609,70.401,1260.789,76.581,1260.789,84.2z"/>
<path fill-rule="evenodd" clip-rule="evenodd" fill="#FFFFFF" stroke="#000000" stroke-width="7" stroke-miterlimit="10" d="
	M1033.892,83.688c0,0,6.869,9.691,20.546,2.709c1.069-0.546,2.111-1.285,3.214-2.07l1.764-51.981c0,0-17.932-9.522-28.956,1.222
	L1033.892,83.688z"/>
<path fill-rule="evenodd" clip-rule="evenodd" fill="#FFFFFF" stroke="#000000" stroke-width="7" stroke-miterlimit="10" d="
	M1073.206,83.688c0,0,6.868,9.691,20.546,2.709c1.068-0.546,2.111-1.285,3.211-2.07l1.766-51.981c0,0-17.93-9.522-28.955,1.222
	L1073.206,83.688z"/>
<path fill-rule="evenodd" clip-rule="evenodd" fill="#FFFFFF" stroke="#000000" stroke-width="7" stroke-miterlimit="10" d="
	M1113.384,83.688c0,0,6.868,9.691,20.546,2.709c1.068-0.546,2.112-1.285,3.214-2.07l1.763-51.981c0,0-17.93-9.522-28.955,1.222
	L1113.384,83.688z"/>
<path fill-rule="evenodd" clip-rule="evenodd" fill="#FFFFFF" stroke="#000000" stroke-width="7" stroke-miterlimit="10" d="
	M1152.699,83.688c0,0,6.869,9.691,20.543,2.709c1.07-0.546,2.114-1.285,3.214-2.07l1.767-51.981c0,0-17.935-9.522-28.956,1.222
	L1152.699,83.688z"/>
<path fill-rule="evenodd" clip-rule="evenodd" fill="#FFFFFF" stroke="#000000" stroke-width="7" stroke-miterlimit="10" d="
	M1196.766,83.688c0,0,6.869,9.691,20.543,2.709c1.072-0.546,2.114-1.285,3.214-2.07l1.767-51.981c0,0-17.935-9.522-28.956,1.222
	L1196.766,83.688z"/>
<path fill-rule="evenodd" clip-rule="evenodd" fill="#FFFFFF" stroke="#000000" stroke-width="7" stroke-miterlimit="10" d="
	M1236.08,83.688c0,0,6.869,9.691,20.543,2.709c1.071-0.546,2.115-1.285,3.214-2.07l1.767-51.981c0,0-17.934-9.522-28.957,1.222
	L1236.08,83.688z"/>
</svg>
