<?xml version="1.0" encoding="utf-8"?>
<!-- Generator: Adobe Illustrator 16.0.0, SVG Export Plug-In . SVG Version: 6.00 Build 0)  -->
<!DOCTYPE svg PUBLIC "-//W3C//DTD SVG 1.1//EN" "http://www.w3.org/Graphics/SVG/1.1/DTD/svg11.dtd">
<svg version="1.1" id="Capa_1" xmlns="http://www.w3.org/2000/svg" xmlns:xlink="http://www.w3.org/1999/xlink" x="0px" y="0px"
	 width="218.643px" height="177.215px" viewBox="0 0 218.643 177.215" enable-background="new 0 0 218.643 177.215"
	 xml:space="preserve">
<path fill-rule="evenodd" clip-rule="evenodd" d="M138.214,139.792c-0.447,0.292-0.82,0.534-1.191,0.777
	c-8.158,5.333-16.322,10.654-24.465,16.013c-0.695,0.457-1.189,0.491-1.922,0.061c-9.788-5.759-19.598-11.483-29.4-17.214
	c-0.267-0.156-0.535-0.307-0.889-0.508c-0.277,0.205-0.577,0.419-0.867,0.643c-8.789,6.763-17.568,13.533-26.374,20.271
	c-0.749,0.572-1.623,1.053-2.513,1.358c-7.102,2.439-14.22,4.825-21.334,7.226c-0.385,0.13-0.778,0.236-1.289,0.389
	c0.07-0.309,0.095-0.529,0.172-0.729c3.122-8.203,6.239-16.409,9.395-24.6c0.25-0.649,0.676-1.288,1.172-1.778
	c7.814-7.771,15.651-15.521,23.499-23.26c0.47-0.463,0.714-0.91,0.714-1.6c0.008-10.402,0.044-20.805,0.086-31.209
	c0.002-0.479-0.129-0.836-0.455-1.193c-2.714-2.961-5.379-5.967-8.133-8.892c-0.837-0.889-1.896-1.572-2.875-2.322
	c-0.164-0.126-0.439-0.134-0.666-0.144c-0.165-0.007-0.335,0.067-0.5,0.113c-2.134,0.588-4.068,0.125-5.865-1.095
	c-0.596-0.404-1.203-0.79-1.865-1.222c-0.156,0.167-0.338,0.313-0.463,0.498c-0.676,0.992-1.33,2-2.006,2.994
	c-0.367,0.54-0.467,1.102-0.354,1.756c0.211,1.227,0.214,2.459-0.162,3.669c-0.9,2.905-3.694,4.854-6.838,4.762
	c-2.914-0.085-5.561-2.229-6.273-5.081c-0.747-2.996,0.494-6.077,3.037-7.574c0.908-0.533,1.906-0.809,2.931-0.894
	c0.884-0.073,1.433-0.47,1.888-1.202c0.867-1.395,1.809-2.744,2.795-4.23c-1.073-1.074-2.13-2.138-3.191-3.195
	c-0.22-0.217-0.476-0.399-0.682-0.628c-0.517-0.569-0.75-1.223-0.505-1.989c0.126-0.393,0.246-0.787,0.395-1.169
	c1.311-3.362,2.895-6.593,4.718-9.706c0.223-0.382,0.433-0.77,0.693-1.233c-4.503-3.914-8.975-7.802-13.462-11.7
	c-0.567,0.487-1.075,0.947-1.608,1.376c-0.889,0.72-1.869,1.272-2.983,1.571c-0.882,0.235-1.79,0.316-2.643,0.027
	c-3.326-1.129-5.828-3.158-6.946-6.617c-0.627-1.946-0.37-3.875,0.193-5.773c0.262-0.884,0.595-1.758,1.004-2.584
	c1.919-3.865,4.285-7.43,7.26-10.568c1.729-1.823,3.729-3.253,6.18-3.93c2.549-0.706,4.993-0.402,7.185,1.104
	c1.038,0.715,1.989,1.579,2.876,2.479c1.773,1.804,2.082,3.947,1.195,6.278c-0.268,0.701-0.609,1.374-0.949,2.136
	c4.787,4.161,9.572,8.317,14.387,12.503c0.494-0.382,0.933-0.71,1.357-1.053c2.979-2.402,6.201-4.419,9.609-6.147
	c1.418-0.719,1.829-0.635,3.057,0.374c1.27,1.042,2.578,2.036,3.952,3.118c1.13-1.293,2.22-2.521,3.286-3.768
	c0.433-0.507,0.256-1.109,0.158-1.682c-0.371-2.217,0.215-4.146,1.734-5.789c2.688-2.903,7.311-2.882,9.993,0.031
	c2.649,2.876,2.305,7.582-0.729,10.006c-0.912,0.729-1.959,1.146-3.103,1.275c-1.425,0.162-2.503,0.854-3.354,1.975
	c-0.39,0.51-0.824,0.988-1.275,1.525c0.997-0.056,1.904-0.155,2.81-0.146c1.534,0.017,2.96,0.51,4.351,1.128
	c0.492,0.218,0.629,0.542,0.602,1.046c-0.037,0.682-0.01,1.365-0.01,2.134c0.441,0,0.859,0,1.413,0
	c-0.033-0.501-0.021-1.006-0.111-1.494c-0.118-0.627,0.119-1.036,0.59-1.414c1.263-1.012,2.7-1.449,4.302-1.43
	c1.844,0.022,3.789,0.564,5.355,1.537c0,0.893,0,1.838,0,2.826c0.572,0,1.066,0,1.592,0c0-0.634,0.029-1.21-0.01-1.782
	c-0.029-0.421,0.109-0.712,0.411-0.989c0.917-0.841,2.001-1.356,3.212-1.51c2.359-0.303,4.557,0.25,6.628,1.405
	c0,0.952,0,1.868,0,2.858c0.45,0,0.87,0,1.329,0c0-0.574,0.051-1.121-0.015-1.652c-0.069-0.555,0.161-0.904,0.554-1.234
	c0.893-0.75,1.92-1.229,3.059-1.376c2.36-0.306,4.556,0.249,6.645,1.404c0,0.943,0,1.858,0,2.829
	c0.892,0.207,1.766,0.094,2.73,0.067c0-0.565,0.056-1.106-0.014-1.632c-0.078-0.59,0.154-0.969,0.583-1.32
	c0.87-0.72,1.864-1.19,2.966-1.341c2.396-0.327,4.619,0.249,6.699,1.383c0,0.991,0,1.906,0,2.887c0.469,0,0.892,0,1.318,0
	c0-0.599,0.047-1.144-0.012-1.678c-0.061-0.552,0.17-0.903,0.564-1.23c0.926-0.765,1.984-1.246,3.163-1.388
	c2.178-0.257,4.228,0.234,6.168,1.22c0.204,0.104,0.375,0.274,0.591,0.437c0.127-0.097,0.269-0.189,0.396-0.3
	c0.102-0.087,0.188-0.194,0.355-0.371c-1.006-1.13-1.965-2.287-3.012-3.359c-0.609-0.624-1.45-0.862-2.322-0.999
	c-2.997-0.465-4.932-2.311-5.588-5.271c-0.578-2.604,0.502-5.467,2.73-6.968c2.415-1.63,4.957-1.711,7.475-0.255
	c2.368,1.369,3.666,4.106,3.184,6.746c-0.2,1.092,0.001,1.914,0.781,2.697c0.917,0.917,1.746,1.922,2.666,2.946
	c1.357-1.066,2.664-2.06,3.933-3.101c1.233-1.011,1.644-1.097,3.058-0.38c3.471,1.76,6.748,3.82,9.77,6.276
	c0.37,0.302,0.76,0.579,1.207,0.918c4.808-4.177,9.591-8.334,14.393-12.505c-0.279-0.594-0.537-1.113-0.77-1.645
	c-1.202-2.743-0.818-4.911,1.271-7.064c0.501-0.516,1.029-1.012,1.589-1.462c2.877-2.319,6.039-2.773,9.459-1.381
	c1.876,0.765,3.461,1.959,4.846,3.417c3.101,3.26,5.557,6.968,7.511,11.012c0.677,1.398,1.118,2.875,1.302,4.42
	c0.39,3.277-0.802,5.941-3.28,8.015c-0.882,0.737-1.938,1.29-2.972,1.817c-1.426,0.728-2.933,0.709-4.379,0.057
	c-0.805-0.363-1.555-0.861-2.286-1.365c-0.532-0.366-0.992-0.839-1.538-1.31c-4.483,3.896-8.956,7.782-13.463,11.699
	c0.254,0.455,0.463,0.844,0.685,1.223c1.827,3.112,3.408,6.344,4.722,9.706c0.113,0.286,0.219,0.575,0.322,0.867
	c0.368,1.025,0.084,1.854-0.705,2.59c-1.203,1.12-2.362,2.289-3.566,3.462c0.172,0.311,0.286,0.554,0.433,0.774
	c0.813,1.232,1.658,2.444,2.438,3.695c0.404,0.645,0.92,0.981,1.67,1.014c0.271,0.012,0.539,0.099,0.81,0.141
	c3.727,0.564,5.888,4.115,5.429,7.43c-0.529,3.81-3.718,6.347-7.454,5.989c-3.231-0.31-5.88-3.011-6.077-6.255
	c-0.046-0.748,0.081-1.506,0.096-2.259c0.006-0.401,0.072-0.882-0.112-1.193c-0.806-1.347-1.691-2.645-2.581-4.012
	c-0.327,0.202-0.555,0.337-0.777,0.481c-0.403,0.26-0.811,0.516-1.206,0.787c-1.828,1.252-3.806,1.711-5.962,1.069
	c-0.604-0.181-1.023-0.008-1.502,0.339c-1.873,1.349-3.593,2.847-5.104,4.605c-1.769,2.057-3.63,4.031-5.472,6.023
	c-0.4,0.431-0.575,0.871-0.575,1.464c0.005,10.37-0.004,20.739-0.03,31.108c-0.003,0.607,0.206,1.023,0.623,1.432
	c5.244,5.146,10.483,10.297,15.711,15.46c2.736,2.702,5.443,5.433,8.179,8.137c0.581,0.572,0.935,1.254,1.218,2.001
	c2.545,6.698,5.099,13.394,7.65,20.09c0.609,1.598,1.223,3.193,1.918,5.006c-0.539-0.156-0.912-0.249-1.275-0.371
	c-5.85-1.965-11.698-3.933-17.547-5.901c-1.267-0.427-2.525-0.876-3.797-1.292c-0.99-0.324-1.877-0.813-2.702-1.451
	c-8.265-6.373-16.539-12.733-24.81-19.098C139.046,140.421,138.664,140.132,138.214,139.792z M71.214,123.03
	c0.328,0.201,0.617,0.384,0.91,0.557c12.652,7.52,25.309,15.029,37.945,22.574c0.742,0.443,1.229,0.377,1.913-0.08
	c9.475-6.326,18.97-12.623,28.457-18.927c1.769-1.177,3.536-2.356,5.331-3.552c0-2.121,0.003-4.213,0-6.305
	c-0.021-11.225-0.038-22.449-0.08-33.673c-0.003-0.839,0.191-1.479,0.789-2.111c2.074-2.194,4.081-4.453,6.113-6.688
	c0.248-0.273,0.484-0.555,0.847-0.97c-0.35-0.283-0.665-0.499-0.933-0.762c-2.08-2.046-4.141-4.112-6.232-6.146
	c-0.402-0.391-0.611-0.785-0.576-1.348c0.053-0.82,0.083-1.645,0.084-2.466c0.011-4.978,0.012-9.956,0.012-14.934
	c0-0.334-0.029-0.669-0.046-1.042c-1.312,0-2.558,0-3.849,0c-0.056,1.231-0.096,2.394-0.167,3.554
	c-0.019,0.29-0.1,0.597-0.235,0.854c-0.217,0.411-0.542,0.767-0.756,1.181c-0.772,1.494-2.326,2.389-3.967,2.248
	c-1.694-0.146-3.068-1.21-3.57-2.818c-0.131-0.42-0.166-0.873-0.205-1.315c-0.102-1.22-0.182-2.444-0.272-3.717
	c-0.83,0-1.565,0-2.392,0c-0.062,1.238-0.112,2.431-0.188,3.62c-0.016,0.262-0.077,0.534-0.185,0.771
	c-0.164,0.367-0.412,0.695-0.581,1.062c-0.737,1.596-2.359,2.555-4.077,2.393c-1.771-0.169-3.209-1.328-3.593-3.048
	c-0.235-1.064-0.301-2.169-0.432-3.256c-0.06-0.503-0.095-1.009-0.148-1.6c-0.692,0-1.303,0-1.914,0c-0.604,0-1.208,0-1.847,0
	c-0.039,0.765-0.092,1.379-0.096,1.994c-0.007,1.161-0.163,2.242-0.713,3.326c-0.834,1.644-2.318,2.708-4.07,2.594
	c-1.884-0.122-3.354-1.336-3.761-3.242c-0.233-1.098-0.296-2.232-0.435-3.353c-0.053-0.425-0.103-0.851-0.153-1.267
	c-0.832,0-1.542,0-2.35,0c-0.039,0.791-0.088,1.535-0.108,2.281c-0.029,1.023-0.12,2.009-0.56,2.979
	c-0.725,1.602-2.247,2.672-3.96,2.608c-1.758-0.063-3.159-1.188-3.797-2.84c-0.441-1.146-0.586-2.308-0.621-3.509
	c-0.015-0.503-0.098-1.006-0.15-1.517c-0.907,0-1.718,0-2.614,0c-0.034,0.412-0.082,0.78-0.095,1.147
	c-0.027,0.823-0.023,1.648-0.064,2.472c-0.012,0.259-0.093,0.529-0.207,0.765c-0.174,0.36-0.438,0.678-0.605,1.041
	c-0.758,1.639-2.414,2.609-4.167,2.415c-1.796-0.2-3.216-1.443-3.587-3.2c-0.135-0.633-0.18-1.286-0.242-1.933
	c-0.089-0.905-0.156-1.813-0.229-2.683c-0.885,0-1.621,0-2.462,0c0,0.656,0.004,1.234-0.001,1.813
	c-0.011,1.228-0.109,2.402-0.711,3.552c-0.793,1.522-2.264,2.556-3.947,2.475c-1.713-0.082-3.198-1.173-3.719-2.784
	c-0.27-0.84-0.543-1.678-0.536-2.59c0.005-0.814-0.124-1.627-0.194-2.451c-0.621,0-1.172,0-1.781,0c0,0.4,0.002,0.707,0,1.013
	c-0.004,2.986-0.027,5.974-0.011,8.96c0.015,2.744,0.057,5.486,0.125,8.227c0.016,0.643-0.187,1.098-0.646,1.533
	c-1.221,1.156-2.405,2.353-3.597,3.539c-1.164,1.16-2.316,2.33-3.494,3.515c0.174,0.21,0.318,0.399,0.479,0.575
	c2.236,2.467,4.468,4.939,6.723,7.389c0.377,0.411,0.578,0.824,0.527,1.379c-0.082,0.883-0.191,1.766-0.201,2.65
	c-0.035,2.984-0.03,5.973-0.043,8.957c-0.027,5.871-0.061,11.74-0.08,17.609C71.205,115.994,71.214,119.46,71.214,123.03z
	 M65.506,127.2c15.339,8.965,30.647,17.914,45.998,26.887c0.425-0.268,0.831-0.516,1.23-0.776
	c7.842-5.126,15.683-10.253,23.524-15.379c4.854-3.173,9.709-6.347,14.57-9.509c0.516-0.335,0.883-0.656,0.834-1.374
	c-0.066-1.025,0.014-2.059,0.014-3.089c0.01-12.842,0.018-25.682,0.015-38.523c0-0.457-0.126-0.912-0.21-1.496
	c2.956-3.24,5.996-6.574,9.051-9.924c-0.3-0.315-0.504-0.545-0.723-0.761c-2.24-2.227-4.479-4.454-6.729-6.672
	c-0.213-0.211-0.471-0.381-0.729-0.54c-0.505-0.309-0.834-0.686-0.684-1.335c0.045-0.196,0.029-0.409,0.029-0.614
	c0.018-7.52,0.031-15.037,0.043-22.557c0-0.262-0.053-0.523-0.08-0.789c-3.212,0-6.354,0-9.594,0
	c0.078,1.551-0.213,3.031-0.055,4.619c1.873,0,3.646,0,5.544,0c0,0.504,0.001,0.906,0,1.309c-0.011,5.976-0.008,11.948-0.052,17.922
	c-0.006,0.794,0.232,1.35,0.797,1.886c1.47,1.394,2.893,2.836,4.331,4.264c1.042,1.034,2.079,2.075,3.151,3.147
	c-0.274,0.318-0.488,0.581-0.717,0.831c-2.285,2.515-4.563,5.038-6.871,7.532c-0.475,0.513-0.691,1.031-0.688,1.738
	c0.021,4.05-0.004,8.102-0.007,12.154c-0.003,9.029-0.016,18.059,0.021,27.089c0.005,0.964-0.263,1.529-1.085,2.073
	c-11.511,7.604-22.996,15.248-34.488,22.881c-0.281,0.187-0.574,0.36-0.881,0.553c-0.361-0.205-0.69-0.384-1.014-0.575
	c-13.216-7.851-26.427-15.707-39.654-23.536c-0.709-0.42-0.987-0.862-0.979-1.696c0.068-6.282,0.098-12.565,0.117-18.847
	c0.021-6.764,0.015-13.527,0.041-20.292c0.002-0.594-0.18-1.027-0.58-1.458c-1.749-1.888-3.471-3.803-5.203-5.709
	c-0.803-0.885-1.605-1.771-2.452-2.705c0.309-0.317,0.563-0.589,0.829-0.852c2.263-2.253,4.516-4.516,6.799-6.748
	c0.477-0.465,0.693-0.937,0.689-1.613c-0.021-3.365,0.01-6.729,0.02-10.094c0.01-2.748,0.014-5.494,0.024-8.239
	c0.001-0.327,0.032-0.653,0.057-1.085c1.171,0,2.216,0,3.349,0c-0.107-1.579-0.207-3.039-0.31-4.549c-2.354,0-4.63,0-7.034,0
	c0,0.644,0.001,1.219,0,1.798c-0.012,4.222-0.019,8.446-0.038,12.669c-0.013,2.986-0.069,5.973-0.044,8.959
	c0.008,0.971-0.237,1.66-1.201,2.004c-0.178,0.063-0.308,0.268-0.453,0.412c-2.293,2.272-4.585,4.543-6.875,6.817
	c-0.184,0.183-0.346,0.387-0.543,0.61c1.018,1.122,1.983,2.19,2.951,3.255c1.664,1.829,3.268,3.716,5.021,5.456
	c0.767,0.762,1.104,1.449,1.086,2.55c-0.097,5.491-0.09,10.984-0.109,16.478c-0.024,6.661-0.04,13.32-0.057,19.981
	C65.502,123.522,65.506,125.306,65.506,127.2z M192.361,31.019c0.191,0.215,0.361,0.377,0.5,0.562
	c0.602,0.792,1.174,1.607,1.791,2.385c2.004,2.527,4.951,2.593,7.047,0.174c0.135-0.155,0.258-0.321,0.383-0.485
	c0.25-0.327,0.49-0.661,0.748-0.981c0.902-1.125,1.164-2.397,0.803-3.774c-0.516-1.96-1.197-3.857-2.207-5.631
	c-1.379-2.426-2.963-4.699-4.779-6.812c-1.103-1.282-2.33-2.413-3.803-3.272c-3.563-2.076-6.742-0.729-8.856,1.875
	c-1.117,1.377-1.159,2.795-0.183,4.282c0.392,0.595,0.902,1.117,1.393,1.643c0.668,0.718,1.367,1.407,2.088,2.144
	c-0.73,0.781-1.375,1.471-2.039,2.182c-0.659-0.531-1.238-0.999-1.838-1.483c-4.662,4.052-9.261,8.05-13.923,12.1
	c2.606,3.065,5.134,6.036,7.703,9.06c4.403-3.823,8.748-7.598,13.049-11.332c-0.063-0.434-0.112-0.762-0.163-1.109
	C190.853,32.024,191.589,31.533,192.361,31.019z M30.127,23.12c0.815-0.83,1.61-1.576,2.332-2.391
	c0.54-0.611,1.054-1.268,1.452-1.976c0.559-0.995,0.479-2.042-0.055-3.053c-1.585-3.003-5.406-4.314-8.502-2.913
	c-1.492,0.676-2.752,1.672-3.859,2.863c-1.922,2.066-3.563,4.346-5.021,6.76c-1.199,1.982-2.07,4.092-2.658,6.327
	c-0.291,1.108-0.333,2.226,0.303,3.184c0.695,1.049,1.463,2.093,2.379,2.942c1.492,1.385,3.451,1.411,5.092,0.188
	c0.565-0.42,1.03-0.994,1.484-1.547c0.666-0.809,1.279-1.66,1.935-2.521c0.845,0.568,1.577,1.064,2.331,1.573
	c-0.053,0.367-0.102,0.696-0.16,1.103c4.316,3.747,8.658,7.515,13.046,11.324c2.589-3.049,5.113-6.018,7.698-9.063
	c-4.68-4.066-9.282-8.063-13.924-12.098c-0.623,0.504-1.203,0.975-1.853,1.496C31.474,24.587,30.833,23.888,30.127,23.12z
	 M181.424,59.65c-0.834-1.788-1.698-3.807-2.696-5.757c-2.98-5.816-6.74-11.068-11.476-15.601c-3.345-3.2-7.06-5.884-11.128-8.085
	c-1.111-0.602-1.213-0.621-2.196,0.143c-3.009,2.338-6.015,4.677-9.021,7.018c-0.205,0.159-0.398,0.335-0.73,0.617
	c0.373,0.043,0.585,0.131,0.746,0.075c1.555-0.534,3.103,0.011,4.65,0.011c0.207,0,0.413,0,0.619,0c0.926,0,1.854,0,2.781,0
	c0.403,0,0.807,0,1.357,0c0,0.755,0.026,1.396-0.008,2.035c-0.029,0.566,0.138,0.934,0.648,1.264
	c2.848,1.842,5.286,4.147,7.478,6.724c4.724,5.552,8.271,11.771,10.623,18.672c0.114,0.334,0.264,0.656,0.45,1.114
	C176.181,65.111,178.717,62.47,181.424,59.65z M72.49,38.082c0.062-0.09,0.123-0.181,0.186-0.271
	c-0.164-0.229-0.293-0.498-0.5-0.681c-0.409-0.364-0.86-0.681-1.293-1.019c-2.49-1.939-4.981-3.877-7.465-5.824
	c-0.545-0.426-1.052-0.703-1.767-0.301c-2.751,1.555-5.435,3.199-7.911,5.174c-6.83,5.453-11.925,12.266-15.734,20.078
	c-0.748,1.535-1.403,3.113-2.122,4.72c2.667,2.642,5.286,5.239,7.996,7.925c0.171-0.401,0.28-0.638,0.373-0.883
	c0.448-1.186,0.842-2.394,1.344-3.557c3.844-8.9,9.014-16.785,17.215-22.328c0.298-0.201,0.378-0.444,0.372-0.777
	c-0.012-0.711-0.004-1.424-0.004-2.212c0.436-0.021,0.771-0.05,1.104-0.053c0.961-0.007,1.924,0.032,2.883-0.013
	c0.985-0.047,1.966-0.195,2.952-0.255c0.434-0.026,0.876,0.046,1.31,0.097C71.785,37.944,72.136,38.021,72.49,38.082z
	 M64.997,129.942c-0.298,0.258-0.558,0.472-0.804,0.7c-2.488,2.312-4.975,4.625-7.461,6.937c-2.262,2.103-4.525,4.201-6.779,6.31
	c-0.26,0.244-0.645,0.431-0.533,0.913c0.299,1.297,0.103,2.59-0.009,3.889c-0.06,0.697-0.207,1.418,0.058,2.115
	c1.881,0.225,3.713,0.451,5.547,0.65c0.175,0.02,0.387-0.096,0.547-0.201c0.256-0.17,0.489-0.377,0.725-0.576
	c5.774-4.91,11.549-9.822,17.326-14.729c0.205-0.174,0.445-0.304,0.77-0.522C71.119,133.52,68.078,131.742,64.997,129.942z
	 M143.962,136.03c0.369,0.342,0.611,0.578,0.868,0.797c4.181,3.557,8.361,7.109,12.544,10.663c1.41,1.199,2.82,2.4,4.242,3.586
	c0.247,0.205,0.463,0.441,0.895,0.372c1.082-0.173,2.178-0.249,3.267-0.373c0.739-0.084,1.478-0.186,2.321-0.293
	c-0.057-0.957-0.123-1.838-0.158-2.722c-0.034-0.923-0.15-1.863-0.02-2.767c0.1-0.677-0.07-1.059-0.541-1.494
	c-4.685-4.33-9.35-8.682-14.023-13.023c-0.191-0.178-0.414-0.325-0.62-0.484C149.813,132.204,146.949,134.077,143.962,136.03z
	 M154.589,47.061c-0.129,0.564-0.258,0.904-0.276,1.251c-0.036,0.648-0.013,1.301-0.013,1.951c0,4.317-0.004,8.633,0.009,12.949
	c0.001,0.359,0.025,0.798,0.224,1.063c0.379,0.506,0.891,0.913,1.371,1.383c2.701-2.465,5.326-4.859,7.988-7.289
	C161.433,54.134,158.506,50.387,154.589,47.061z M53.516,58.374c2.66,2.422,5.238,4.771,8.005,7.29
	c0.303-0.407,0.498-0.802,0.807-1.056c0.614-0.502,0.816-1.09,0.803-1.879c-0.041-2.229,0.002-4.459,0.01-6.689
	c0.011-2.573,0.019-5.145,0.024-7.719c0.002-0.441,0.06-0.922-0.62-1.026C58.894,50.404,55.976,54.133,53.516,58.374z
	 M175.697,159.284c-0.481-0.716-0.945-1.406-1.432-2.129c1.314-0.475,2.663,0,3.861-0.674c-0.205-0.842-0.403-1.66-0.615-2.531
	c0.814-0.161,1.533-0.303,2.328-0.46c-1.014-2.648-1.926-5.212-2.971-7.756c-1.73,0.456-3.321,0.873-4.91,1.298
	c-0.129,0.034-0.242,0.119-0.422,0.213c0.021,0.397,0.036,0.806,0.066,1.211c0.085,1.164,0.184,2.328,0.266,3.492
	c0.114,1.607-0.447,2.267-2.066,2.439c-0.136,0.015-0.273,0.015-0.41,0.027c-0.918,0.085-1.835,0.171-2.857,0.266
	c0.289,0.973,0.607,1.869,1.11,2.678c0.163,0.262,0.515,0.465,0.822,0.566c1.821,0.607,3.652,1.182,5.486,1.75
	C174.576,159.866,175.163,159.78,175.697,159.284z M45.879,147.132c-1.793-0.467-3.536-0.919-5.37-1.396
	c-0.994,2.628-1.957,5.166-2.936,7.746c0.855,0.178,1.574,0.329,2.315,0.482c-0.22,0.935-0.411,1.75-0.634,2.695
	c1.357,0.151,2.586,0.287,3.959,0.438c-0.572,0.82-1.037,1.488-1.52,2.178c0.561,0.502,1.146,0.592,1.768,0.399
	c1.833-0.568,3.664-1.144,5.486-1.749c0.307-0.103,0.66-0.308,0.82-0.57c0.492-0.813,0.828-1.703,1.098-2.676
	c-1.085-0.099-2.071-0.192-3.059-0.276c-1.865-0.161-2.406-0.8-2.246-2.665c0.014-0.172,0.037-0.342,0.049-0.514
	C45.699,149.896,45.786,148.563,45.879,147.132z M92.427,36.197c-1.123-0.528-2.324-0.786-3.568-0.797
	c-0.865-0.008-1.697,0.183-2.467,0.61c-0.399,0.224-0.6,0.5-0.541,0.991c0.098,0.815,0.135,1.638,0.191,2.458
	c0.235,3.42,0.486,6.836,0.688,10.256c0.04,0.689,0.372,1.068,0.929,1.342c1.128,0.556,2.242,0.4,3.383-0.012
	c0.736-0.268,1.063-0.667,1.079-1.493c0.06-3.015,0.212-6.026,0.299-9.041C92.46,39.11,92.427,37.71,92.427,36.197z M104.312,36.224
	c-1.081-0.508-2.182-0.755-3.317-0.817c-0.938-0.052-1.841,0.112-2.685,0.556c-0.431,0.227-0.654,0.5-0.614,1.049
	c0.319,4.306,0.614,8.614,0.895,12.923c0.028,0.433,0.208,0.691,0.544,0.913c1.135,0.756,2.326,0.703,3.543,0.263
	c1.199-0.437,1.232-0.497,1.274-1.77c0.12-3.665,0.244-7.331,0.358-10.997C104.332,37.661,104.312,36.979,104.312,36.224z
	 M140.478,36.255c-1.227-0.582-2.426-0.871-3.668-0.84c-0.703,0.018-1.427,0.186-2.096,0.418c-0.866,0.303-0.91,0.455-0.883,1.366
	c0.012,0.376,0.029,0.753,0.055,1.13c0.259,3.793,0.534,7.586,0.766,11.382c0.036,0.591,0.281,0.94,0.742,1.243
	c1.155,0.764,3.362,0.575,4.605-0.579C140.16,45.679,140.319,40.958,140.478,36.255z M80.982,36.255
	c-1.223-0.576-2.391-0.861-3.597-0.84c-0.704,0.012-1.433,0.164-2.101,0.393c-0.962,0.329-1.035,0.519-0.969,1.521
	c0.275,4.065,0.578,8.131,0.818,12.198c0.053,0.895,0.469,1.388,1.246,1.662c1.487,0.527,2.813,0.117,4.121-0.711
	C80.662,45.745,80.821,41.027,80.982,36.255z M128.832,36.218c-1.077-0.515-2.215-0.818-3.383-0.795
	c-0.803,0.017-1.629,0.203-2.393,0.464c-0.822,0.28-0.844,0.427-0.785,1.313c0.281,4.205,0.576,8.411,0.835,12.618
	c0.032,0.513,0.232,0.835,0.638,1.083c1.229,0.752,2.471,0.598,3.746,0.105c0.687-0.266,0.994-0.645,1.01-1.436
	c0.07-3.597,0.22-7.193,0.328-10.791C128.853,37.962,128.832,37.141,128.832,36.218z M115.851,36.05
	c-1.084-0.218-2.144-0.491-3.221-0.629c-0.965-0.123-1.911,0.092-2.782,0.555c-0.39,0.206-0.641,0.465-0.575,0.973
	c0.08,0.609,0.073,1.23,0.115,1.846c0.248,3.624,0.523,7.247,0.734,10.873c0.041,0.685,0.315,1.069,0.878,1.359
	c1.28,0.661,2.516,0.414,3.757-0.127c0.533-0.23,0.744-0.568,0.759-1.174c0.086-3.494,0.226-6.988,0.33-10.481
	C115.876,38.253,115.851,37.262,115.851,36.05z M74.68,23.651c-0.017,2.082,1.667,3.799,3.754,3.83
	c2.003,0.031,3.79-1.737,3.835-3.791c0.044-1.995-1.732-3.782-3.795-3.819C76.429,19.834,74.699,21.561,74.68,23.651z M142.732,23.7
	c0-2.097-1.705-3.84-3.749-3.829c-2.059,0.01-3.853,1.771-3.843,3.772c0.01,2.046,1.777,3.838,3.788,3.839
	C141.004,27.483,142.731,25.767,142.732,23.7z M33.097,81.485c2.146,0.012,3.818-1.625,3.814-3.729
	c-0.006-2.121-1.58-3.738-3.664-3.766c-2.158-0.029-3.848,1.573-3.869,3.67C29.357,79.798,30.988,81.475,33.097,81.485z
	 M184.236,81.485c2.129,0.018,3.779-1.615,3.791-3.747c0.012-2.114-1.633-3.741-3.787-3.747c-2.135-0.007-3.751,1.633-3.739,3.792
	C180.513,79.849,182.147,81.469,184.236,81.485z M120.73,40.747c-1.122,0-2.102,0-3.154,0c-0.064,1.542-0.127,3.025-0.191,4.536
	c1.299,0,2.447,0,3.658,0C120.937,43.742,120.835,42.28,120.73,40.747z M96.51,45.302c-0.114-1.598-0.22-3.078-0.327-4.556
	c-0.729,0-1.328,0-2.035,0c0,1.54,0,3.019,0,4.556C94.898,45.302,95.634,45.302,96.51,45.302z M108.09,45.3
	c-0.124-1.617-0.236-3.095-0.349-4.558c-0.654,0-1.154,0-1.743,0c-0.062,1.538-0.122,3.021-0.184,4.558
	C106.628,45.3,107.296,45.3,108.09,45.3z M130.542,40.714c-0.064,1.557-0.126,3.041-0.189,4.554c0.816,0,1.507,0,2.271,0
	c-0.12-1.577-0.233-3.058-0.347-4.554C131.659,40.714,131.182,40.714,130.542,40.714z M82.529,40.725c0,0.864,0,1.609,0,2.355
	c0,0.731,0,1.464,0,2.218c0.743,0,1.377,0,2.145,0c-0.109-1.572-0.213-3.075-0.315-4.573C83.712,40.725,83.208,40.725,82.529,40.725
	z M180.65,71.759c-0.879-1.311-1.729-2.583-2.594-3.873c-0.368,0.288-0.681,0.533-0.982,0.771c0.951,1.398,1.789,2.629,2.668,3.922
	C180.108,72.247,180.355,72.024,180.65,71.759z M36.75,71.766c0.313,0.263,0.604,0.508,0.946,0.794
	c0.91-1.354,1.743-2.594,2.596-3.861c-0.35-0.324-0.612-0.568-0.914-0.848C38.485,69.183,37.646,70.433,36.75,71.766z M74.77,29.4
	c-0.36-0.277-0.646-0.499-0.974-0.751c-1.041,1.17-2.028,2.277-3.061,3.438c0.411,0.28,0.705,0.48,1.022,0.695
	C72.767,31.649,73.718,30.582,74.77,29.4z M142.648,29.412c1.041,1.169,2.027,2.276,3.037,3.411c0.36-0.287,0.621-0.493,0.964-0.766
	c-1.024-1.148-2.016-2.257-3.05-3.416C143.253,28.922,142.973,29.151,142.648,29.412z M44.797,68.274
	c-0.048,0.056-0.097,0.111-0.146,0.166c0.23,0.148,0.459,0.297,0.689,0.446c0.031-0.05,0.061-0.098,0.091-0.146
	C45.22,68.585,45.009,68.431,44.797,68.274z M172.76,68.43c-0.052-0.056-0.104-0.11-0.154-0.163
	c-0.209,0.166-0.417,0.336-0.624,0.504c0.031,0.04,0.063,0.082,0.093,0.124C172.302,68.739,172.533,68.584,172.76,68.43z"/>
</svg>
