<?xml version="1.0" encoding="utf-8"?>
<!-- Generator: Adobe Illustrator 16.0.0, SVG Export Plug-In . SVG Version: 6.00 Build 0)  -->
<!DOCTYPE svg PUBLIC "-//W3C//DTD SVG 1.1//EN" "http://www.w3.org/Graphics/SVG/1.1/DTD/svg11.dtd">
<svg version="1.1" id="Capa_1" xmlns="http://www.w3.org/2000/svg" xmlns:xlink="http://www.w3.org/1999/xlink" x="0px" y="0px"
	 width="418px" height="142px" viewBox="0 0 418 142" enable-background="new 0 0 418 142" xml:space="preserve">
<g>
	<path fill-rule="evenodd" clip-rule="evenodd" d="M377.708,73.692c-0.896,0.396-1.436,0.644-1.979,0.869
		c-10.214,4.192-20.431,8.396-30.666,12.553c-1.044,0.426-2.2,0.727-3.329,0.796c-36.454,2.133-72.907,4.235-109.368,6.343
		c-25.889,1.498-51.786,2.982-77.678,4.496c-7.491,0.449-14.979,1.01-22.193,1.502c-1.025,1.243-1.781,2.384-2.763,3.273
		c-1.68,1.53-3.861,1.953-6.036,2.295c-0.933,0.148-1.867,0.22-3.038,0.356c0.304,2.444,0.503,4.825,0.942,7.144
		c0.13,0.662,0.905,1.281,1.504,1.78c3.822,3.153,4.887,8.148,2.631,12.539c-2.393,4.658-8.263,6.632-12.986,4.358
		c-4.969-2.395-7.192-8.29-4.846-13.121c0.586-1.197,1.507-2.255,2.389-3.268c0.445-0.509,0.706-0.928,0.615-1.607
		c-0.372-2.767-0.711-5.545-1.073-8.436c-2.509-0.186-4.947-0.528-7.379-0.504c-1.988,0.031-2.844-0.846-3.481-2.604
		c-1.94-5.341-3.412-10.795-4.423-16.384c-0.097-0.53-0.212-1.06-0.351-1.769C85.414,84.3,76.646,84.28,67.857,84.28
		c-0.206,2.483-0.533,4.776-1.668,6.869c-0.95,1.754-2.302,3.086-4.179,3.724c-4.753,1.634-9.415,1.544-13.713-1.303
		c-1.206-0.802-2.231-1.991-3.082-3.177c-1.767-2.468-2.774-5.315-3.453-8.254c-1.187-5.133-1.846-10.353-1.805-15.625
		c0.029-3.645,0.563-7.207,2.268-10.5c2.131-4.125,5.494-6.563,10.068-7.166c1.74-0.232,3.548-0.152,5.296,0.03
		c3.874,0.382,6.319,2.608,7.512,6.267c0.283,0.893,0.497,1.82,0.771,2.844c9.361,0.014,18.689,0.02,28.112,0.045
		c0.166-0.836,0.318-1.553,0.451-2.283c1.021-5.726,2.701-11.253,4.932-16.623c0.597-1.439,1.295-2.149,2.975-2.126
		c2.579,0.046,5.165-0.231,7.976-0.384c0.039-2.589,0.164-5.09,0.058-7.58c-0.023-0.58-0.736-1.228-1.279-1.673
		c-2.751-2.224-4.034-5.094-3.791-8.609c0.292-4.244,3.417-7.874,7.569-8.886c4.07-0.996,8.427,0.742,10.683,4.275
		c2.381,3.717,2.289,8.35-0.663,11.568c-1.491,1.629-1.961,3.256-1.855,5.311c0.087,1.615-0.001,3.242-0.021,4.997
		c1.565-0.065,2.99-0.114,4.412-0.188c1.428-0.065,2.852-0.151,4.414-0.235c0.961,2.231,1.905,4.408,2.896,6.717
		c1.341,0.038,2.697,0.082,4.054,0.117c2.998,0.071,5.997,0.209,9.002,0.195c17.61-0.074,35.126,1.688,52.68,2.687
		c35.497,2.015,70.978,4.247,106.456,6.421c11.781,0.717,23.554,1.557,35.329,2.374c0.717,0.05,1.468,0.3,2.098,0.64
		c10.324,5.518,20.63,11.064,30.938,16.595C374.659,72.078,376.026,72.792,377.708,73.692z M330.571,67.256
		c-1.043-0.034-1.998-0.085-2.955-0.121c-46.856-1.61-93.709-3.26-140.57-4.816c-20.259-0.667-40.505-1.735-60.782-1.604
		c-1.972,0.008-3.943-0.002-5.999-0.002c-1.125,7.28-0.732,14.351,0.609,21.311c10.711,0.209,21.142,0.641,31.569,0.578
		c29.358-0.166,58.703-0.533,88.06-0.814c29.557-0.287,59.109-0.566,88.666-0.855c0.67-0.002,1.346-0.07,2.018-0.096
		c-0.067-0.098-0.141-0.193-0.211-0.295c1.93-2.057,3.85-4.125,5.772-6.18C334.799,71.835,332.028,70.225,330.571,67.256z
		 M93.229,62.38c-9.074-0.006-18.129-0.018-27.207-0.029c-0.191,1.241-0.362,2.291-0.536,3.449
		c-1.532-0.176-2.847-0.334-4.293-0.508c0.12-1.714,0.193-3.205,0.32-4.688c0.459-5.326-1.969-7.867-7.269-7.607
		c-0.345,0.007-0.684,0.037-1.023,0.08c-3.552,0.449-6.034,2.33-7.459,5.615c-1.104,2.561-1.449,5.252-1.457,8.007
		c0,4.923,0.548,9.821,1.765,14.591c0.551,2.152,1.535,4.21,2.477,6.25c0.711,1.517,1.981,2.592,3.584,3.166
		c0.69,0.256,1.474,0.252,2.187,0.46c5.546,1.618,9.59-1.62,9.106-7.315c-0.014-0.211-0.098-0.408-0.116-0.61
		c-0.077-1.349-0.146-2.714-0.219-4.208c1.456-0.177,2.782-0.338,4.107-0.498c0.258,0.543,0.458,0.953,0.662,1.389
		c8.577,0.012,17.089,0.018,25.539,0.025C93.336,74.066,93.286,68.366,93.229,62.38z M127.077,40.085
		c-7.629,0.42-15.123,0.832-22.619,1.201c-0.957,0.047-1.501,0.39-1.795,1.299c-0.722,2.206-1.592,4.363-2.226,6.586
		c-4.103,14.421-3.681,28.863-0.035,43.287c0.7,2.768,1.63,5.457,2.474,8.24c5.632,0.391,11.055,0.764,16.505,1.129
		c-0.01-0.343,0.025-0.481-0.019-0.582c-4.391-10.379-6.606-21.219-6.655-32.467c-0.038-8.961,1.821-17.465,6.637-25.182
		c0.69-1.108,1.405-1.659,2.771-1.533c1.876,0.151,3.769,0.082,5.788,0.127C127.594,41.401,127.374,40.839,127.077,40.085z
		 M338.473,80.179c1.258,0.645,2.291,1.168,3.315,1.699c0.776,0.403,1.503,0.372,2.32,0.006c2.419-1.094,4.861-2.145,7.316-3.159
		c1.074-0.457,1.742-1.158,2.02-2.38c-1.336-0.318-2.532-0.606-3.906-0.932c1.359-1.707,3.059-2.713,3.889-4.412
		c-1.145-0.801-2.18-1.504-3.271-2.256c0.803-0.98,1.441-1.746,2.256-2.731c-3.66-1.976-7.209-3.884-10.819-5.825
		c-0.876,1.219-1.649,2.257-2.382,3.32c-0.758,1.111-1.488,2.234-2.31,3.48c1.721,1.719,3.333,3.357,4.977,4.971
		c1.657,1.635,1.745,2.838,0.181,4.551C340.956,77.714,339.788,78.843,338.473,80.179z M119.514,23.188
		c1.957-2.293,1.688-5.949-0.586-7.928c-2.308-2-6.115-1.658-8.059,0.723c-1.925,2.352-1.577,5.945,0.752,7.891
		C113.938,25.814,117.545,25.503,119.514,23.188z M120.438,118.622c-2.43-1.967-5.811-1.604-7.799,0.825
		c-1.984,2.412-1.657,5.829,0.736,7.825c2.448,2.035,5.949,1.661,7.96-0.854C123.272,123.988,122.881,120.603,120.438,118.622z
		 M117.098,112.997c-0.296-2.448-0.566-4.658-0.842-6.96c-0.695-0.046-1.266-0.073-1.977-0.13c0.307,2.428,0.588,4.707,0.88,7.076
		C115.803,112.997,116.327,112.997,117.098,112.997z M116.624,36.212c0.031-2.361,0.056-4.488,0.087-6.863
		c-0.752,0.031-1.33,0.064-1.927,0.1c-0.033,2.479-0.06,4.623-0.087,6.879C115.37,36.286,115.882,36.263,116.624,36.212z
		 M120.313,101.229c0.018,0.165,0.037,0.331,0.054,0.503c1.011-0.089,2.017-0.172,3.022-0.261c-0.01-0.146-0.022-0.302-0.036-0.464
		C122.336,101.089,121.329,101.155,120.313,101.229z"/>
	<polyline fill-rule="evenodd" clip-rule="evenodd" fill="#FFFFFF" points="340.259,54.109 132.737,42.315 155.354,22.237 
		294.874,6.456 	"/>
</g>
<path d="M113.349,82.022c0,0-4.052-18.635,0.695-27.809l220.949,7.896l-4.637,5.146l6.392,7.104l-7.472,8.262L114.31,86.315
	L113.349,82.022z"/>

</svg>
