<?xml version="1.0" encoding="utf-8"?>
<!-- Generator: Adobe Illustrator 16.0.0, SVG Export Plug-In . SVG Version: 6.00 Build 0)  -->
<!DOCTYPE svg PUBLIC "-//W3C//DTD SVG 1.1//EN" "http://www.w3.org/Graphics/SVG/1.1/DTD/svg11.dtd">
<svg version="1.1" id="Capa_1" xmlns="http://www.w3.org/2000/svg" xmlns:xlink="http://www.w3.org/1999/xlink" x="0px" y="0px"
	 width="418px" height="142px" viewBox="0 0 418 142" enable-background="new 0 0 418 142" xml:space="preserve">
<g>
	<path fill-rule="evenodd" clip-rule="evenodd" d="M375.825,72.155c-0.896,0.396-1.436,0.642-1.979,0.865
		c-10.214,4.192-20.431,8.399-30.666,12.558c-1.044,0.424-2.2,0.725-3.329,0.791c-36.454,2.133-72.907,4.236-109.368,6.342
		c-25.889,1.502-51.786,2.984-77.678,4.5c-7.491,0.445-14.979,1.008-22.193,1.5c-1.025,1.244-1.781,2.385-2.763,3.277
		c-1.68,1.525-3.861,1.953-6.036,2.294c-0.933,0.15-1.867,0.222-3.038,0.356c0.304,2.443,0.503,4.824,0.942,7.141
		c0.13,0.664,0.905,1.281,1.504,1.785c3.822,3.153,4.887,8.146,2.631,12.535c-2.393,4.66-8.263,6.63-12.986,4.358
		c-4.969-2.397-7.192-8.29-4.846-13.126c0.586-1.191,1.507-2.254,2.389-3.262c0.445-0.506,0.706-0.93,0.615-1.607
		c-0.372-2.768-0.711-5.545-1.073-8.438c-2.509-0.183-4.947-0.527-7.379-0.5c-1.988,0.029-2.844-0.848-3.481-2.607
		c-1.94-5.342-3.412-10.791-4.423-16.383c-0.097-0.527-0.212-1.058-0.351-1.764c-8.787-0.008-17.555-0.027-26.344-0.027
		c-0.206,2.48-0.533,4.775-1.668,6.867c-0.95,1.752-2.302,3.086-4.179,3.723c-4.753,1.635-9.415,1.545-13.713-1.305
		c-1.206-0.797-2.231-1.99-3.082-3.175c-1.767-2.468-2.774-5.315-3.453-8.252c-1.187-5.136-1.846-10.356-1.805-15.627
		c0.029-3.645,0.563-7.209,2.268-10.502c2.131-4.123,5.494-6.563,10.068-7.164c1.74-0.231,3.548-0.151,5.296,0.028
		c3.874,0.383,6.319,2.61,7.512,6.267c0.283,0.892,0.497,1.823,0.771,2.844c9.361,0.015,18.689,0.019,28.112,0.042
		c0.166-0.832,0.318-1.549,0.451-2.28c1.021-5.725,2.701-11.251,4.932-16.623c0.597-1.439,1.295-2.15,2.975-2.127
		c2.579,0.048,5.165-0.229,7.976-0.381c0.039-2.589,0.164-5.09,0.058-7.581c-0.023-0.58-0.736-1.228-1.279-1.673
		c-2.751-2.225-4.034-5.095-3.791-8.609c0.292-4.247,3.417-7.876,7.569-8.886c4.07-0.998,8.427,0.742,10.683,4.273
		c2.381,3.72,2.289,8.354-0.663,11.571c-1.491,1.628-1.961,3.256-1.855,5.308c0.087,1.618-0.001,3.243-0.021,4.999
		c1.565-0.065,2.99-0.115,4.412-0.187c1.428-0.068,2.852-0.154,4.414-0.237c0.961,2.231,1.905,4.408,2.896,6.72
		c1.341,0.035,2.697,0.081,4.054,0.114c2.998,0.071,5.997,0.208,9.002,0.194c17.61-0.073,35.126,1.688,52.68,2.689
		c35.497,2.015,70.978,4.246,106.456,6.421c11.781,0.719,23.554,1.555,35.329,2.375c0.717,0.05,1.468,0.299,2.098,0.64
		c10.324,5.515,20.63,11.062,30.938,16.593C372.776,70.535,374.144,71.256,375.825,72.155z M328.688,65.717
		c-1.043-0.036-1.998-0.086-2.955-0.123c-46.856-1.609-93.709-3.258-140.57-4.814c-20.259-0.667-40.505-1.734-60.782-1.604
		c-1.972,0.004-3.943-0.003-5.999-0.003c-1.125,7.282-0.732,14.351,0.609,21.312c10.711,0.207,21.142,0.643,31.569,0.576
		c29.358-0.16,58.703-0.532,88.06-0.813c29.557-0.289,59.109-0.566,88.666-0.855c0.67,0,1.346-0.067,2.018-0.095
		c-0.067-0.1-0.141-0.192-0.211-0.299c1.93-2.055,3.85-4.121,5.772-6.178C332.916,70.297,330.146,68.688,328.688,65.717z
		 M91.346,60.841c-9.074-0.003-18.129-0.015-27.207-0.031c-0.191,1.243-0.362,2.291-0.536,3.448
		c-1.532-0.173-2.847-0.331-4.293-0.504c0.12-1.716,0.193-3.206,0.32-4.691c0.459-5.323-1.969-7.862-7.269-7.604
		c-0.345,0.007-0.684,0.036-1.023,0.077c-3.552,0.451-6.034,2.331-7.459,5.614c-1.104,2.562-1.449,5.257-1.457,8.009
		c0,4.923,0.548,9.823,1.765,14.593c0.551,2.152,1.535,4.209,2.477,6.25c0.711,1.518,1.981,2.59,3.584,3.163
		c0.69,0.256,1.474,0.252,2.187,0.462c5.546,1.619,9.59-1.62,9.106-7.314c-0.014-0.211-0.098-0.408-0.116-0.607
		c-0.077-1.354-0.146-2.719-0.219-4.207c1.456-0.182,2.782-0.342,4.107-0.505c0.258,0.547,0.458,0.956,0.662,1.392
		c8.577,0.015,17.089,0.019,25.539,0.025C91.453,72.527,91.403,66.827,91.346,60.841z M125.194,38.547
		c-7.629,0.416-15.123,0.829-22.619,1.202c-0.957,0.042-1.501,0.385-1.795,1.296c-0.722,2.206-1.592,4.362-2.226,6.585
		c-4.103,14.422-3.681,28.865-0.035,43.289c0.7,2.767,1.63,5.459,2.474,8.24c5.632,0.391,11.055,0.762,16.505,1.129
		c-0.01-0.346,0.025-0.484-0.019-0.58c-4.391-10.383-6.606-21.221-6.655-32.468c-0.038-8.962,1.821-17.466,6.637-25.184
		c0.69-1.11,1.405-1.659,2.771-1.536c1.876,0.152,3.769,0.083,5.788,0.131C125.711,39.861,125.491,39.299,125.194,38.547z
		 M336.59,78.643c1.258,0.645,2.291,1.165,3.315,1.699c0.776,0.4,1.503,0.373,2.32,0.006c2.419-1.097,4.861-2.145,7.316-3.166
		c1.074-0.453,1.742-1.154,2.02-2.375c-1.336-0.318-2.532-0.607-3.906-0.936c1.359-1.704,3.059-2.707,3.889-4.411
		c-1.145-0.797-2.18-1.5-3.271-2.255c0.803-0.977,1.441-1.746,2.256-2.73c-3.66-1.973-7.209-3.885-10.819-5.826
		c-0.876,1.222-1.649,2.258-2.382,3.322c-0.758,1.111-1.488,2.232-2.31,3.481c1.721,1.716,3.333,3.356,4.977,4.969
		c1.657,1.633,1.745,2.842,0.181,4.551C339.073,76.174,337.905,77.307,336.59,78.643z M117.631,21.648
		c1.957-2.293,1.688-5.945-0.586-7.926c-2.308-2-6.115-1.661-8.059,0.722c-1.925,2.353-1.577,5.943,0.752,7.891
		C112.056,24.274,115.662,23.965,117.631,21.648z M118.556,117.084c-2.43-1.967-5.811-1.604-7.799,0.824
		c-1.984,2.416-1.657,5.826,0.736,7.826c2.448,2.038,5.949,1.66,7.96-0.855C121.39,122.445,120.998,119.064,118.556,117.084z
		 M115.215,111.457c-0.296-2.443-0.566-4.656-0.842-6.957c-0.695-0.047-1.266-0.075-1.977-0.133c0.307,2.43,0.588,4.711,0.88,7.082
		C113.92,111.457,114.444,111.457,115.215,111.457z M114.741,34.675c0.031-2.366,0.056-4.491,0.087-6.866
		c-0.752,0.033-1.33,0.065-1.927,0.1c-0.033,2.478-0.06,4.624-0.087,6.878C113.487,34.744,113.999,34.721,114.741,34.675z
		 M118.43,99.689c0.018,0.163,0.037,0.329,0.054,0.503c1.011-0.091,2.017-0.174,3.022-0.261c-0.01-0.146-0.022-0.302-0.036-0.464
		C120.453,99.551,119.446,99.614,118.43,99.689z"/>
	<polyline fill-rule="evenodd" clip-rule="evenodd" fill="#FFFFFF" points="338.376,52.572 130.854,40.778 153.472,20.696 
		292.991,4.914 	"/>
</g>
<path d="M118.991,80.484c0,0-3.915-18.638,0.672-27.81l213.507,7.897l-4.481,5.146l6.177,7.104l-7.22,8.263L119.92,84.776
	L118.991,80.484z"/>
<g>
	<path fill="#706F6F" stroke="#706F6F" stroke-width="0.25" stroke-miterlimit="10" d="M134.976,64.263
		c0,1.678-0.638,2.936-1.911,3.768c-1.275,0.832-2.988,1.248-5.138,1.248c-0.274,0-0.508-0.007-0.709-0.022
		c0,1.607,0.058,3.548,0.177,5.824h-2.123c0.112-2.088,0.168-4.61,0.168-7.56c0-2.534-0.056-4.811-0.168-6.83h1.58
		c0.171,0,0.655-0.008,1.457-0.031c0.798-0.023,1.478-0.035,2.038-0.035c1.414,0,2.54,0.324,3.375,0.967
		C134.558,62.24,134.976,63.125,134.976,64.263z M133.132,64.904c0-1.894-1.295-2.842-3.88-2.842c-0.636,0-1.345,0.056-2.133,0.166
		c0.05,1.203,0.077,3.073,0.077,5.614c0.256,0.016,0.574,0.023,0.95,0.023C131.467,67.865,133.132,66.879,133.132,64.904z"/>
	<path fill="#706F6F" stroke="#706F6F" stroke-width="0.25" stroke-miterlimit="10" d="M143.839,64.583l-0.497,1.757
		c-0.574-0.228-1.109-0.343-1.603-0.343c-1.385,0-2.285,0.659-2.697,1.98c0,3.387,0.023,5.757,0.066,7.104h-1.956
		c0.117-2.338,0.177-4.148,0.177-5.437c0-1.745-0.171-3.416-0.518-5.016l1.935-0.276c0.138,0.81,0.208,1.353,0.208,1.623h0.088
		c0.796-1.172,1.725-1.755,2.786-1.755C142.387,64.218,143.058,64.339,143.839,64.583z"/>
	<path fill="#706F6F" stroke="#706F6F" stroke-width="0.25" stroke-miterlimit="10" d="M155.277,69.512
		c0,1.886-0.542,3.354-1.625,4.414c-1.083,1.056-2.358,1.588-3.822,1.588c-1.372,0-2.549-0.471-3.532-1.404
		c-0.982-0.939-1.475-2.252-1.475-3.955c0-1.904,0.543-3.387,1.629-4.455c1.087-1.069,2.364-1.603,3.831-1.603
		c1.37,0,2.545,0.474,3.525,1.419C154.786,66.462,155.277,67.795,155.277,69.512z M153.364,69.9c0-1.152-0.289-2.173-0.867-3.069
		c-0.58-0.896-1.402-1.343-2.47-1.343c-1.062,0-1.877,0.424-2.448,1.271c-0.571,0.848-0.856,1.83-0.856,2.951
		c0,1.157,0.289,2.182,0.865,3.071c0.58,0.893,1.407,1.338,2.481,1.338c1.063,0,1.876-0.426,2.443-1.277
		C153.079,71.996,153.364,71.014,153.364,69.9z"/>
	<path fill="#706F6F" stroke="#706F6F" stroke-width="0.25" stroke-miterlimit="10" d="M166.403,64.583
		c0,0.472-0.555,1.975-1.668,4.51c-1.271,2.896-2.065,4.938-2.374,6.123c-0.508,1.923-0.98,3.146-1.416,3.67
		c-0.587,0.721-1.64,1.081-3.15,1.081l-0.087-1.546c0.919,0,1.686-0.313,2.299-0.941c0.61-0.624,0.917-1.41,0.917-2.354
		c0-0.817-0.678-2.764-2.032-5.834c-1.358-3.073-2.035-4.643-2.035-4.708h2.287c0,0.196,0.465,1.541,1.391,4.022
		c0.929,2.481,1.395,4.01,1.395,4.584h0.112c0-0.475,0.391-1.866,1.176-4.165c0.785-2.3,1.177-3.78,1.177-4.442H166.403z"/>
	<path fill="#706F6F" stroke="#706F6F" stroke-width="0.25" stroke-miterlimit="10" d="M177.411,68.593
		c0,0.312-0.016,0.74-0.044,1.283l-7.592,0.131c0.073,1.074,0.491,1.98,1.248,2.703c0.759,0.726,1.765,1.09,3.017,1.09
		c1.122,0,2.171-0.139,3.15-0.412l-0.187,1.561c-0.722,0.287-1.765,0.43-3.129,0.43c-1.915,0-3.375-0.521-4.38-1.57
		c-1.006-1.046-1.509-2.318-1.509-3.82c0-1.609,0.459-2.99,1.375-4.15c0.919-1.164,2.149-1.741,3.698-1.741
		c1.421,0,2.504,0.419,3.244,1.26C177.041,66.197,177.411,67.275,177.411,68.593z M175.565,68.617c0-2.069-0.867-3.106-2.597-3.106
		c-1.769,0-2.812,1.076-3.129,3.229L175.565,68.617z"/>
	<path fill="#706F6F" stroke="#706F6F" stroke-width="0.25" stroke-miterlimit="10" d="M187.997,73.389l-0.109,1.485
		c-0.598,0.337-1.397,0.505-2.398,0.505c-1.909,0-3.368-0.523-4.375-1.578c-1.01-1.059-1.515-2.324-1.515-3.813
		c0-1.58,0.53-2.934,1.592-4.069c1.059-1.133,2.464-1.701,4.211-1.701c0.875,0,1.589,0.086,2.143,0.266l-0.297,1.734
		c-0.774-0.287-1.561-0.429-2.356-0.429c-1.046,0-1.878,0.364-2.499,1.094c-0.616,0.729-0.927,1.642-0.927,2.74
		c0,1.194,0.37,2.188,1.104,2.982c0.738,0.796,1.78,1.196,3.128,1.196C186.25,73.801,187.017,73.662,187.997,73.389z"/>
	<path fill="#706F6F" stroke="#706F6F" stroke-width="0.25" stroke-miterlimit="10" d="M196.24,73.559l-0.13,1.435
		c-0.583,0.214-1.133,0.319-1.647,0.319c-1.328,0-2.233-0.338-2.719-1.01c-0.485-0.674-0.729-1.881-0.729-3.621
		c0-1.129,0.006-2.595,0.02-4.41c-0.412,0-1.019,0.023-1.822,0.067l0.065-1.603c0.701,0.042,1.327,0.065,1.88,0.065
		c0-0.439,0.039-1.491,0.112-3.147l1.733-0.178c-0.127,1.549-0.188,2.657-0.188,3.325c0.722,0,1.784-0.033,3.183-0.109l-0.077,1.647
		c-1.325-0.044-2.389-0.067-3.194-0.067c-0.016,1.113-0.023,2.368-0.023,3.759c0,1.518,0.162,2.521,0.481,3.013
		c0.32,0.487,0.917,0.731,1.787,0.731C195.258,73.775,195.682,73.702,196.24,73.559z"/>
	<path fill="#706F6F" stroke="#706F6F" stroke-width="0.25" stroke-miterlimit="10" d="M208.397,69.512
		c0,1.886-0.54,3.354-1.623,4.414c-1.086,1.056-2.36,1.588-3.826,1.588c-1.37,0-2.546-0.471-3.53-1.404
		c-0.984-0.939-1.475-2.252-1.475-3.955c0-1.904,0.543-3.387,1.63-4.455c1.086-1.069,2.362-1.603,3.83-1.603
		c1.37,0,2.545,0.474,3.526,1.419C207.908,66.462,208.397,67.795,208.397,69.512z M206.486,69.9c0-1.152-0.29-2.173-0.867-3.069
		c-0.578-0.896-1.403-1.343-2.47-1.343c-1.062,0-1.876,0.424-2.449,1.271c-0.572,0.848-0.857,1.83-0.857,2.951
		c0,1.157,0.289,2.182,0.869,3.071c0.578,0.893,1.405,1.338,2.479,1.338c1.062,0,1.877-0.426,2.443-1.277
		C206.203,71.996,206.486,71.014,206.486,69.9z"/>
	<path fill="#706F6F" stroke="#706F6F" stroke-width="0.25" stroke-miterlimit="10" d="M217.968,72.084
		c0,2.156-1.375,3.229-4.123,3.229c-1.215,0-2.35-0.121-3.401-0.363l0.343-1.625c0.955,0.369,1.996,0.552,3.115,0.552
		c1.604,0,2.409-0.456,2.409-1.368c0-0.443-0.181-0.793-0.534-1.057c-0.359-0.26-0.952-0.557-1.775-0.877
		c-1.046-0.412-1.805-0.81-2.278-1.197c-0.692-0.567-1.037-1.25-1.037-2.056c0-0.84,0.316-1.561,0.95-2.16
		c0.633-0.599,1.597-0.899,2.896-0.899c1.268,0,2.285,0.104,3.052,0.32l-0.344,1.591c-0.797-0.316-1.718-0.474-2.764-0.474
		c-1.415,0-2.121,0.409-2.121,1.226c0,0.412,0.158,0.746,0.476,1.001c0.315,0.254,0.935,0.563,1.855,0.921
		c0.993,0.391,1.729,0.774,2.21,1.147C217.609,70.582,217.968,71.275,217.968,72.084z"/>
</g>
<g>
	<path fill="#878787" d="M249.205,65.615c0,1.676-0.638,2.932-1.911,3.767c-1.275,0.832-2.988,1.248-5.141,1.248
		c-0.271,0-0.508-0.004-0.707-0.018c0,1.604,0.061,3.546,0.178,5.822h-2.121c0.111-2.092,0.166-4.611,0.166-7.563
		c0-2.532-0.055-4.809-0.166-6.828h1.58c0.169,0,0.654-0.012,1.452-0.035c0.8-0.021,1.479-0.033,2.038-0.033
		c1.414,0,2.541,0.322,3.377,0.969C248.787,63.588,249.205,64.477,249.205,65.615z M247.359,66.254c0-1.894-1.293-2.839-3.878-2.839
		c-0.634,0-1.347,0.054-2.133,0.166c0.05,1.198,0.076,3.071,0.076,5.614c0.257,0.016,0.574,0.023,0.95,0.023
		C245.698,69.218,247.359,68.229,247.359,66.254z"/>
	<path fill="#878787" d="M258.066,65.935l-0.497,1.757c-0.574-0.231-1.107-0.343-1.603-0.343c-1.384,0-2.281,0.659-2.693,1.981
		c0,3.385,0.021,5.754,0.065,7.104h-1.957c0.119-2.336,0.177-4.146,0.177-5.436c0-1.748-0.173-3.422-0.519-5.021l1.933-0.273
		c0.141,0.809,0.21,1.349,0.21,1.622h0.091c0.794-1.173,1.723-1.757,2.782-1.757C256.616,65.568,257.288,65.692,258.066,65.935z"/>
	<path fill="#878787" d="M269.507,70.863c0,1.884-0.544,3.357-1.626,4.415c-1.083,1.058-2.358,1.585-3.822,1.585
		c-1.372,0-2.549-0.468-3.531-1.4c-0.985-0.938-1.477-2.258-1.477-3.961c0-1.899,0.544-3.382,1.632-4.454
		c1.085-1.067,2.362-1.601,3.828-1.601c1.369,0,2.545,0.472,3.523,1.42C269.015,67.813,269.507,69.144,269.507,70.863z
		 M267.596,71.248c0-1.148-0.291-2.169-0.871-3.067c-0.578-0.893-1.4-1.34-2.47-1.34c-1.06,0-1.877,0.424-2.447,1.27
		c-0.57,0.848-0.855,1.83-0.855,2.951c0,1.158,0.29,2.184,0.867,3.07c0.578,0.894,1.404,1.338,2.481,1.338
		c1.06,0,1.874-0.422,2.44-1.273C267.31,73.344,267.596,72.361,267.596,71.248z"/>
	<path fill="#878787" d="M280.634,65.935c0,0.47-0.557,1.973-1.668,4.508c-1.275,2.894-2.067,4.937-2.377,6.122
		c-0.509,1.924-0.979,3.146-1.414,3.671c-0.59,0.72-1.638,1.083-3.148,1.083l-0.089-1.547c0.921,0,1.686-0.316,2.299-0.937
		c0.61-0.632,0.917-1.416,0.917-2.358c0-0.816-0.678-2.763-2.032-5.836c-1.356-3.072-2.035-4.641-2.035-4.706h2.287
		c0,0.199,0.464,1.538,1.393,4.019c0.929,2.488,1.392,4.013,1.392,4.589h0.111c0-0.479,0.394-1.869,1.177-4.166
		c0.786-2.3,1.177-3.783,1.177-4.442H280.634z"/>
	<path fill="#878787" d="M291.639,69.948c0,0.306-0.013,0.734-0.042,1.281l-7.594,0.131c0.076,1.077,0.492,1.977,1.251,2.705
		c0.757,0.723,1.763,1.086,3.017,1.086c1.119,0,2.17-0.138,3.148-0.408l-0.188,1.557c-0.722,0.288-1.764,0.43-3.127,0.43
		c-1.916,0-3.377-0.521-4.384-1.566c-1.004-1.047-1.507-2.32-1.507-3.824c0-1.604,0.458-2.987,1.375-4.151
		c0.918-1.16,2.15-1.74,3.697-1.74c1.424,0,2.503,0.42,3.242,1.26C291.271,67.547,291.639,68.628,291.639,69.948z M289.794,69.965
		c0-2.069-0.864-3.106-2.597-3.106c-1.769,0-2.811,1.079-3.127,3.229L289.794,69.965z"/>
	<path fill="#878787" d="M302.227,74.742l-0.111,1.48c-0.596,0.339-1.396,0.506-2.396,0.506c-1.91,0-3.368-0.525-4.378-1.578
		c-1.009-1.053-1.514-2.322-1.514-3.813c0-1.577,0.531-2.933,1.592-4.068c1.063-1.135,2.465-1.702,4.211-1.702
		c0.879,0,1.591,0.089,2.143,0.266l-0.297,1.734c-0.775-0.29-1.557-0.43-2.354-0.43c-1.045,0-1.877,0.363-2.497,1.094
		c-0.62,0.729-0.929,1.644-0.929,2.738c0,1.196,0.37,2.188,1.106,2.984c0.735,0.795,1.777,1.195,3.127,1.195
		C300.481,75.15,301.248,75.013,302.227,74.742z"/>
	<path fill="#878787" d="M310.472,74.908l-0.135,1.434c-0.582,0.216-1.129,0.324-1.645,0.324c-1.326,0-2.231-0.338-2.721-1.014
		c-0.485-0.675-0.729-1.881-0.729-3.62c0-1.125,0.008-2.595,0.023-4.408c-0.412,0-1.021,0.021-1.824,0.067l0.067-1.604
		c0.696,0.045,1.325,0.064,1.876,0.064c0-0.439,0.039-1.489,0.111-3.146l1.736-0.179c-0.125,1.547-0.188,2.656-0.188,3.325
		c0.722,0,1.784-0.033,3.185-0.11l-0.079,1.649c-1.327-0.046-2.392-0.067-3.194-0.067c-0.016,1.111-0.021,2.364-0.021,3.758
		c0,1.515,0.16,2.52,0.482,3.01c0.319,0.492,0.912,0.735,1.783,0.735C309.487,75.128,309.909,75.053,310.472,74.908z"/>
	<path fill="#878787" d="M319.554,73.437c0,2.154-1.371,3.229-4.121,3.229c-1.215,0-2.35-0.124-3.404-0.367l0.344-1.625
		c0.957,0.369,1.995,0.555,3.117,0.555c1.604,0,2.407-0.455,2.407-1.371c0-0.441-0.179-0.795-0.535-1.057
		c-0.358-0.258-0.948-0.551-1.774-0.879c-1.046-0.412-1.805-0.809-2.275-1.189c-0.693-0.57-1.04-1.252-1.04-2.056
		c0-0.842,0.317-1.563,0.952-2.164c0.631-0.601,1.596-0.898,2.893-0.898c1.269,0,2.285,0.106,3.053,0.32l-0.344,1.589
		c-0.795-0.314-1.717-0.476-2.763-0.476c-1.413,0-2.123,0.41-2.123,1.229c0,0.411,0.158,0.744,0.478,1.001
		c0.316,0.253,0.936,0.559,1.855,0.923c0.996,0.388,1.732,0.769,2.21,1.146C319.197,71.934,319.554,72.628,319.554,73.437z"/>
</g>
<g>
	<path fill="#FFFFFF" d="M230.294,60.518c0,0.455-0.602,3.188-1.809,8.199c-1.208,5.013-1.812,8.077-1.812,9.19h-1.495
		c0-0.428,0.607-3.123,1.82-8.08c1.214-4.959,1.823-8.062,1.823-9.309H230.294z"/>
</g>
</svg>
